<svg width="167" height="55" viewBox="0 0 167 55" fill="none" xmlns="http://www.w3.org/2000/svg"><path d="M10.77 54.01a60.4 60.4 0 01-1.28-.014 17.987 17.987 0 01-2.644-.23 8.335 8.335 0 01-2.343-.773 7.645 7.645 0 01-1.976-1.434 7.506 7.506 0 01-1.443-1.97 8.056 8.056 0 01-.768-2.337 17.463 17.463 0 01-.236-2.645c-.009-.298-.02-1.288-.02-1.288V10.736s.012-.976.02-1.262a17.4 17.4 0 01.234-2.64 8.102 8.102 0 01.769-2.345 7.58 7.58 0 011.436-1.972 7.871 7.871 0 011.983-1.442A8.253 8.253 0 016.841.308 17.85 17.85 0 019.494.076L10.77.06h145.362l1.292.018c.88.01 1.759.087 2.628.23a8.415 8.415 0 012.364.772 7.896 7.896 0 013.415 3.413c.369.733.624 1.517.758 2.326.146.88.228 1.77.245 2.662.004.4.004.829.004 1.256.012.529.012 1.032.012 1.54v29.52c0 .512 0 1.012-.012 1.516 0 .459 0 .879-.005 1.311-.017.877-.097 1.75-.242 2.615a8.057 8.057 0 01-.764 2.355 7.706 7.706 0 01-1.436 1.955 7.649 7.649 0 01-1.98 1.442 8.296 8.296 0 01-2.359.776c-.874.142-1.758.219-2.644.23-.414.01-.848.015-1.269.015l-1.533.002-143.837-.002z" fill="#000"/><path d="M33.86 27.46a6.966 6.966 0 01.91-3.356 6.989 6.989 0 012.422-2.501 7.18 7.18 0 00-5.645-3.043c-2.375-.25-4.678 1.417-5.888 1.417-1.234 0-3.098-1.393-5.104-1.352a7.533 7.533 0 00-3.672 1.093 7.507 7.507 0 00-2.655 2.755c-2.736 4.723-.695 11.664 1.925 15.482 1.311 1.87 2.844 3.957 4.849 3.883 1.962-.08 2.694-1.247 5.063-1.247 2.346 0 3.033 1.247 5.079 1.2 2.105-.034 3.431-1.877 4.697-3.765a15.446 15.446 0 002.147-4.362 6.76 6.76 0 01-3-2.482 6.732 6.732 0 01-1.129-3.723zm-3.865-11.411a6.86 6.86 0 001.577-4.924 7.019 7.019 0 00-4.537 2.34 6.533 6.533 0 00-1.618 4.742 5.812 5.812 0 004.578-2.159zM58.66 37.105h-6.696l-1.608 4.734H47.52l6.342-17.515h2.946l6.342 17.515h-2.884l-1.607-4.734zm-6.002-2.185h5.307l-2.617-7.683h-.073l-2.617 7.683zm24.188.535c0 3.968-2.13 6.518-5.345 6.518a4.35 4.35 0 01-4.029-2.234h-.06v6.325h-2.63V29.069h2.545v2.124h.049a4.553 4.553 0 014.078-2.258c3.25 0 5.392 2.563 5.392 6.52zm-2.702 0c0-2.585-1.34-4.285-3.384-4.285-2.009 0-3.36 1.735-3.36 4.285 0 2.573 1.351 4.296 3.36 4.296 2.044 0 3.384-1.687 3.384-4.296zm16.796 0c0 3.968-2.13 6.518-5.344 6.518a4.35 4.35 0 01-4.03-2.234h-.06v6.325h-2.629V29.069h2.545v2.124h.048a4.537 4.537 0 014.078-2.258c3.25 0 5.392 2.563 5.392 6.52zm-2.701 0c0-2.586-1.34-4.285-3.385-4.285-2.008 0-3.359 1.735-3.359 4.285 0 2.573 1.351 4.296 3.36 4.296 2.044 0 3.384-1.687 3.384-4.296zm12.017 1.505c.195 1.736 1.887 2.877 4.199 2.877 2.216 0 3.81-1.141 3.81-2.707 0-1.36-.962-2.174-3.238-2.732l-2.276-.547c-3.226-.776-4.723-2.28-4.723-4.721 0-3.022 2.641-5.098 6.391-5.098 3.712 0 6.256 2.076 6.342 5.098h-2.654c-.158-1.748-1.607-2.803-3.725-2.803-2.118 0-3.567 1.067-3.567 2.62 0 1.24.926 1.968 3.19 2.526l1.935.474c3.604.85 5.101 2.293 5.101 4.855 0 3.277-2.617 5.33-6.781 5.33-3.895 0-6.525-2.005-6.695-5.173h2.691zm16.458-10.913v3.022h2.436v2.076h-2.436v7.04c0 1.094.488 1.603 1.558 1.603a8.34 8.34 0 00.865-.06v2.063c-.481.09-.97.13-1.46.121-2.593 0-3.604-.97-3.604-3.447v-7.32h-1.862v-2.076h1.862v-3.022h2.641zm3.846 9.408c0-4.018 2.373-6.543 6.074-6.543 3.713 0 6.075 2.525 6.075 6.543 0 4.029-2.35 6.543-6.075 6.543-3.724 0-6.074-2.514-6.074-6.543zm9.47 0c0-2.756-1.266-4.383-3.396-4.383s-3.396 1.64-3.396 4.383c0 2.767 1.266 4.382 3.396 4.382s3.396-1.615 3.396-4.382zm4.846-6.386h2.507v2.174h.061a3.041 3.041 0 011.129-1.7 3.06 3.06 0 011.951-.608c.303 0 .605.032.901.098v2.452a3.685 3.685 0 00-1.181-.158 2.654 2.654 0 00-2.624 1.813 2.645 2.645 0 00-.116 1.125v7.574h-2.628V29.07zm18.668 9.02c-.354 2.318-2.618 3.909-5.514 3.909-3.726 0-6.038-2.49-6.038-6.482 0-4.006 2.325-6.604 5.927-6.604 3.543 0 5.771 2.427 5.771 6.3v.897h-9.044v.159a3.31 3.31 0 00.904 2.584 3.343 3.343 0 002.541 1.033 2.903 2.903 0 002.957-1.796h2.496zm-8.886-3.812h6.402a3.057 3.057 0 00-.86-2.305 3.085 3.085 0 00-2.281-.936 3.249 3.249 0 00-3.015 1.997 3.238 3.238 0 00-.246 1.244zM50.79 14.698h1.128a1.422 1.422 0 001.448-.78 1.41 1.41 0 00.143-.562c0-.776-.586-1.278-1.579-1.278a1.506 1.506 0 00-1.703 1.319h-1.239a2.632 2.632 0 01.954-1.878 2.65 2.65 0 012.028-.584c1.662 0 2.832.928 2.832 2.263a1.951 1.951 0 01-1.533 1.925v.1a1.957 1.957 0 011.877 2.035 2.807 2.807 0 01-2.04 2.418c-.362.101-.74.13-1.112.084a2.813 2.813 0 01-2.838-1.426 2.793 2.793 0 01-.332-1.065h1.258c.076.805.818 1.325 1.912 1.325 1.094 0 1.808-.584 1.808-1.406 0-.834-.673-1.348-1.848-1.348h-1.165v-1.142zm5.786 3.062c0-1.144.855-1.803 2.369-1.897l1.725-.099v-.548c0-.67-.444-1.05-1.304-1.05-.702 0-1.187.257-1.328.706h-1.216c.128-1.09 1.158-1.79 2.603-1.79 1.597 0 2.498.792 2.498 2.134v4.34H60.71v-.893h-.1a2.14 2.14 0 01-1.912.997 1.931 1.931 0 01-1.485-.48 1.92 1.92 0 01-.638-1.42zm4.094-.543v-.531l-1.556.099c-.877.058-1.274.356-1.274.916 0 .571.497.904 1.18.904a1.507 1.507 0 001.491-.813c.091-.18.145-.375.159-.575zm4.588-2.957v5.295h-1.257v-6.35h4.194v1.054H65.26zm10.555 2.118c0 2.017-1.023 3.283-2.631 3.283a2.08 2.08 0 01-1.96-1.067h-.1v3.074h-1.257v-8.463h1.21v1.05h.094a2.21 2.21 0 012-1.156c1.62 0 2.644 1.26 2.644 3.279zm-1.293 0c0-1.342-.636-2.153-1.701-2.153-1.059 0-1.72.828-1.72 2.158 0 1.324.661 2.152 1.714 2.152 1.07 0 1.707-.81 1.707-2.157zm2.967 5.452v-1.079c.136.017.273.025.41.023a1.092 1.092 0 001.152-.886l.094-.31-2.305-6.374h1.369l1.597 5.045h.1l1.59-5.045h1.333l-2.374 6.614c-.544 1.545-1.147 2.041-2.445 2.041a5.5 5.5 0 01-.52-.029zm6.32-4.077h1.251c.123.56.65.852 1.386.852.837 0 1.35-.367 1.35-.939 0-.612-.46-.904-1.35-.904h-.954v-.974h.937c.76 0 1.146-.292 1.146-.822 0-.467-.374-.823-1.146-.823-.703 0-1.217.298-1.299.8h-1.21a2.22 2.22 0 01.873-1.443 2.237 2.237 0 011.636-.418c1.514 0 2.38.682 2.38 1.755a1.302 1.302 0 01-1.006 1.3v.1a1.43 1.43 0 011.246 1.429c0 1.207-1.03 2.006-2.603 2.006-1.391 0-2.521-.636-2.637-1.919zm7.051 1.802v-6.35h1.246v4.368h.1l2.934-4.369h1.246v6.351h-1.246v-4.391h-.094l-2.94 4.391h-1.246zm12.39-5.295h-2.006v5.296h-1.258V14.26h-2.006v-1.055h5.27v1.055zm6.771 3.58a2.578 2.578 0 01-1.046 1.419 2.595 2.595 0 01-1.715.42 2.896 2.896 0 01-2.843-2.042 2.862 2.862 0 01-.099-1.237 2.914 2.914 0 01.709-2.327 2.943 2.943 0 012.227-.991c1.773 0 2.843 1.207 2.843 3.201v.438h-4.497v.07a1.68 1.68 0 00.444 1.285 1.67 1.67 0 001.252.535 1.528 1.528 0 001.514-.77h1.211zm-4.421-2.046h3.215a1.526 1.526 0 00-.418-1.169 1.537 1.537 0 00-1.148-.476 1.632 1.632 0 00-1.53 1.012c-.082.2-.122.416-.119.633zm9.75-2.59h2.872c1.246 0 1.977.63 1.977 1.615a1.368 1.368 0 01-1.077 1.342v.099a1.446 1.446 0 011.362 1.464c0 1.108-.835 1.831-2.233 1.831h-2.901v-6.35zm1.246.962v1.645h1.246c.76 0 1.123-.291 1.123-.829 0-.495-.316-.816-.983-.816h-1.386zm0 2.566v1.861h1.491c.743 0 1.141-.327 1.141-.927 0-.636-.451-.934-1.299-.934h-1.333z" fill="#fff"/></svg>