<svg width="181" height="54" viewBox="0 0 181 54" fill="none" xmlns="http://www.w3.org/2000/svg"><path d="M174.243 54H7.576C3.909 54 .909 50.962.909 47.25V6.75C.91 3.038 3.91 0 7.576 0h166.667c3.666 0 6.666 3.038 6.666 6.75v40.5c0 3.712-3 6.75-6.666 6.75z" fill="#000"/><path d="M143.514 40.079h2.488v-16.67h-2.488v16.67zm22.41-10.666l-2.852 7.227h-.086l-2.96-7.227h-2.68l4.439 10.102-2.531 5.617h2.596l6.841-15.719h-2.767zm-14.11 8.771c-.816 0-1.952-.407-1.952-1.415 0-1.286 1.416-1.78 2.638-1.78 1.094 0 1.608.236 2.273.558a3.016 3.016 0 01-2.959 2.637zm.3-9.135c-1.801 0-3.666.794-4.438 2.552l2.208.923c.472-.923 1.35-1.223 2.273-1.223 1.287 0 2.595.772 2.616 2.144v.172c-.451-.257-1.415-.644-2.595-.644-2.38 0-4.804 1.308-4.804 3.754 0 2.23 1.952 3.666 4.139 3.666 1.673 0 2.595-.75 3.175-1.629h.085v1.287h2.401v-6.39c0-2.96-2.208-4.612-5.06-4.612zm-15.376 2.394H133.2v-5.714h3.538c1.86 0 2.916 1.54 2.916 2.858 0 1.292-1.056 2.856-2.916 2.856zm-.064-8.034h-5.961v16.67h2.487v-6.316h3.474c2.758 0 5.468-1.996 5.468-5.176 0-3.182-2.71-5.178-5.468-5.178zm-32.509 14.78c-1.718 0-3.158-1.44-3.158-3.417 0-1.997 1.44-3.457 3.158-3.457 1.697 0 3.029 1.46 3.029 3.457 0 1.976-1.332 3.416-3.029 3.416zm2.857-7.84h-.085c-.559-.668-1.634-1.269-2.987-1.269-2.835 0-5.435 2.492-5.435 5.692 0 3.18 2.6 5.65 5.435 5.65 1.353 0 2.428-.602 2.987-1.289h.085v.816c0 2.17-1.16 3.33-3.029 3.33-1.525 0-2.47-1.096-2.857-2.019l-2.169.901c.623 1.504 2.276 3.352 5.026 3.352 2.922 0 5.392-1.718 5.392-5.908v-10.18h-2.363v.923zm4.081 9.73h2.492v-16.67h-2.492v16.67zm6.166-5.5c-.066-2.19 1.697-3.308 2.964-3.308.989 0 1.826.494 2.105 1.204l-5.069 2.104zm7.733-1.89c-.472-1.268-1.912-3.609-4.855-3.609-2.921 0-5.349 2.299-5.349 5.67 0 3.18 2.405 5.671 5.628 5.671 2.6 0 4.104-1.589 4.727-2.513l-1.934-1.288c-.644.945-1.525 1.568-2.793 1.568-1.268 0-2.169-.58-2.749-1.719l7.582-3.136-.257-.644zM64.589 30.82v2.405h5.758c-.172 1.354-.623 2.342-1.31 3.03-.838.837-2.149 1.761-4.448 1.761-3.544 0-6.314-2.857-6.314-6.401 0-3.544 2.77-6.402 6.314-6.402 1.912 0 3.308.752 4.34 1.72l1.697-1.698c-1.44-1.375-3.351-2.427-6.037-2.427-4.854 0-8.936 3.952-8.936 8.807 0 4.854 4.082 8.806 8.936 8.806 2.622 0 4.598-.858 6.145-2.469 1.589-1.59 2.084-3.824 2.084-5.628a7.83 7.83 0 00-.13-1.504H64.59zm14.773 7.368c-1.72 0-3.2-1.417-3.2-3.437 0-2.04 1.48-3.436 3.2-3.436 1.718 0 3.2 1.396 3.2 3.436 0 2.02-1.482 3.437-3.2 3.437zm0-9.108c-3.136 0-5.692 2.384-5.692 5.67 0 3.266 2.555 5.671 5.692 5.671 3.136 0 5.692-2.405 5.692-5.67 0-3.287-2.556-5.67-5.692-5.67zm12.417 9.108c-1.717 0-3.2-1.417-3.2-3.437 0-2.04 1.483-3.436 3.2-3.436 1.719 0 3.201 1.396 3.201 3.436 0 2.02-1.482 3.437-3.2 3.437zm0-9.108c-3.136 0-5.692 2.384-5.692 5.67 0 3.266 2.556 5.671 5.692 5.671 3.137 0 5.693-2.405 5.693-5.67 0-3.287-2.556-5.67-5.693-5.67z" fill="#fff"/><path fill-rule="evenodd" clip-rule="evenodd" d="M14.945 43.136l-.098-.095c-.388-.41-.618-1.048-.618-1.873v.193-29.495.203c0-.894.268-1.568.715-1.97l16.52 16.518-16.519 16.518zm-.716-31.271zm.007-.219v-.003.003zm0-.01z" fill="url(#paint0_linear)"/><path fill-rule="evenodd" clip-rule="evenodd" d="M36.957 32.333l.125-.072 6.524-3.706c.623-.354 1.037-.782 1.244-1.236-.207.454-.621.882-1.244 1.237l-6.524 3.707-.125.07zm.001-.196l-5.507-5.508 5.507-5.506 6.648 3.777c.845.479 1.319 1.097 1.397 1.73v.002c-.078.63-.552 1.248-1.397 1.728l-6.648 3.777z" fill="url(#paint1_linear)"/><path fill-rule="evenodd" clip-rule="evenodd" d="M16.114 43.579a1.71 1.71 0 01-1.179-.434l16.519-16.518 5.506 5.508-19.352 10.997c-.535.304-1.043.447-1.494.447z" fill="url(#paint2_linear)"/><path fill-rule="evenodd" clip-rule="evenodd" d="M31.455 26.63l-16.52-16.518a1.719 1.719 0 011.178-.433c.452 0 .96.144 1.496.45l19.353 10.995-5.507 5.507zm5.63-5.63L17.61 9.934c-.536-.306-1.044-.45-1.496-.45h-.005.006c.452 0 .959.144 1.495.448L37.086 21z" fill="url(#paint3_linear)"/><path d="M16.235 43.733c.419-.024.883-.168 1.37-.444l19.353-10.997L17.606 43.29c-.488.277-.952.422-1.371.444zm-1.301-.43l-.004-.003a.075.075 0 01.004.004zm-.091-.087l-.008-.008.008.008z" fill="#000"/><path fill-rule="evenodd" clip-rule="evenodd" d="M36.935 32.365l.126-.073-.126.073z" fill="url(#paint4_linear)"/><path fill-rule="evenodd" clip-rule="evenodd" d="M16.124 43.77c-.461 0-.864-.151-1.178-.435v.001l-.004-.004-.087-.084a.302.302 0 00-.008-.008l.099-.1a1.71 1.71 0 001.178.433c.45 0 .959-.142 1.494-.446L36.97 32.129l.124.124-.125.072-19.352 10.996c-.488.276-.952.42-1.371.444a1.889 1.889 0 01-.123.004z" fill="url(#paint5_linear)"/><path d="M14.847 43.246c-.388-.41-.617-1.048-.617-1.873v-.001c0 .826.229 1.464.617 1.873v.001z" fill="#000"/><path fill-rule="evenodd" clip-rule="evenodd" d="M14.847 43.238c-.388-.41-.617-1.047-.617-1.873v-.194c0 .826.229 1.463.617 1.874l.098.094-.098.1z" fill="url(#paint6_linear)"/><path d="M44.856 27.33c.103-.224.154-.456.154-.687v-.001c0 .232-.051.462-.154.688z" fill="#000"/><path fill-rule="evenodd" clip-rule="evenodd" d="M37.082 32.27l-.124-.123 6.648-3.778c.845-.48 1.319-1.099 1.397-1.728 0 .23-.05.462-.153.686-.207.455-.621.883-1.244 1.236l-6.524 3.708z" fill="url(#paint7_linear)"/><path d="M45.009 26.621h-.002c0-.697-.465-1.394-1.397-1.924l-6.524-3.706v-.002l6.524 3.708c.932.53 1.399 1.227 1.399 1.924z" fill="#404040"/><path fill-rule="evenodd" clip-rule="evenodd" d="M44.98 26.62c-.079-.632-.552-1.25-1.397-1.73l-6.648-3.777.124-.124 6.524 3.707c.932.53 1.397 1.227 1.397 1.924z" fill="url(#paint8_linear)"/><path d="M14.23 11.88v-.001.001zm.005-.216l.001-.004-.001.004zm.001-.006v-.007.007zm0-.008c.077-1.37.821-2.16 1.875-2.166a1.712 1.712 0 00-1.166.434l-.004.004c-.032.029-.064.06-.094.092-.35.37-.57.925-.61 1.636z" fill="#404040"/><path fill-rule="evenodd" clip-rule="evenodd" d="M14.23 12.053v-.204c0-.073.002-.145.005-.214l.001-.004v-.01c.04-.712.261-1.266.61-1.637l.098.099c-.447.402-.715 1.077-.715 1.97zm.711-2.16l.004-.005c0 .002-.002.003-.004.004z" fill="url(#paint9_linear)"/><path fill-rule="evenodd" clip-rule="evenodd" d="M36.959 21.125L17.606 10.128c-.536-.305-1.044-.449-1.496-.449-.462 0-.863.15-1.178.433l-.097-.098c.03-.032.063-.063.095-.092l.004-.004a1.71 1.71 0 011.165-.434h.01c.453 0 .96.144 1.497.45L37.083 21l-.124.124z" fill="url(#paint10_linear)"/><path d="M58.884 13.241c.016 1.265-.238 2.287-.758 3.061h4.044V10.27h-3.286v2.972zm-1.844 5.743h-.983v-2.682h.783c.692-.596 1.03-1.616 1.017-3.061V9.285h5.341v7.017h.894v2.682h-.983v-1.699H57.04v1.699z" fill="#fff"/><path d="M58.916 13.374l-.133.002v.107c0 1.198-.25 2.154-.736 2.878l-.14.208h4.427v-6.3h-3.552v3.107l.134-.002h.133v-2.838h3.018v5.766h-3.91v.134l.11.074c.525-.78.783-1.793.783-3.027v-.11l-.134.001zm-1.844 5.743v-.134h-.85V16.57h.7l.037-.032c.721-.621 1.064-1.657 1.064-3.075v-.09.002-3.822h5.072v7.017h.893v2.415h-.715v-1.7h-6.334v1.833h.266V17.55h5.8v1.7h1.25v-2.949h-.893V9.285h-5.606v4.177c0 1.38-.335 2.325-.97 2.872l.086.102v-.134h-.916v2.948h1.25v-.133h-.134zm9.954-3.557c.592.598 1.316.898 2.174.898.855 0 1.58-.3 2.173-.899.592-.6.89-1.365.89-2.297 0-.93-.298-1.696-.89-2.296-.592-.599-1.318-.899-2.174-.899-.857 0-1.58.3-2.173.899-.59.6-.888 1.365-.888 2.296 0 .932.297 1.697.888 2.297zm5.107.668c-.787.81-1.764 1.212-2.933 1.212-1.17 0-2.147-.402-2.933-1.212-.786-.808-1.178-1.797-1.178-2.966 0-1.17.392-2.158 1.178-2.966.786-.809 1.763-1.213 2.933-1.213 1.162 0 2.137.407 2.927 1.219s1.184 1.798 1.184 2.96c0 1.17-.393 2.159-1.178 2.966z" fill="#fff"/><path d="M67.008 15.693l-.095.093c.615.624 1.38.94 2.268.939.888.001 1.655-.315 2.268-.939.618-.624.93-1.43.928-2.39.002-.96-.31-1.766-.928-2.39-.613-.624-1.38-.94-2.268-.939-.888-.001-1.653.315-2.268.939-.617.624-.927 1.43-.926 2.39-.001.96.31 1.766.926 2.39l.095-.093.095-.095c-.566-.575-.848-1.299-.85-2.203.002-.902.284-1.626.85-2.202v.001c.57-.576 1.253-.859 2.078-.86.826.001 1.51.284 2.08.859v.002-.001c.566.575.848 1.299.85 2.201-.002.904-.284 1.628-.85 2.203-.57.576-1.254.859-2.08.86-.825-.001-1.508-.284-2.078-.86l-.095.095zm5.01.576c-.763.784-1.698 1.17-2.837 1.172-1.138-.002-2.073-.388-2.837-1.172-.763-.786-1.138-1.734-1.14-2.874.002-1.138.377-2.086 1.14-2.872.764-.784 1.699-1.172 2.837-1.173 1.132.001 2.064.39 2.834 1.179.765.789 1.144 1.734 1.145 2.866-.001 1.14-.379 2.088-1.141 2.874l.192.186c.808-.83 1.217-1.86 1.216-3.06.001-1.192-.41-2.218-1.222-3.053-.812-.836-1.83-1.26-3.024-1.259-1.2-.001-2.22.42-3.028 1.254-.81.83-1.217 1.86-1.216 3.058 0 1.2.406 2.23 1.216 3.06.808.834 1.828 1.254 3.028 1.252 1.2.002 2.22-.418 3.03-1.252l-.192-.186zm6.462 1.171c-1.178 0-2.164-.398-2.962-1.194-.798-.797-1.196-1.792-1.196-2.984 0-1.19.398-2.186 1.196-2.983.798-.797 1.784-1.196 2.962-1.196 1.205 0 2.185.436 2.938 1.308l-.716.693c-.542-.678-1.285-1.017-2.222-1.017-.874 0-1.608.295-2.208.883-.6.588-.9 1.36-.9 2.312 0 .953.3 1.725.9 2.313.6.588 1.334.883 2.208.883.96 0 1.78-.387 2.457-1.161l.716.714c-.367.44-.824.788-1.376 1.044a4.18 4.18 0 01-1.797.386z" fill="#fff"/><path d="M78.462 17.44c-1.148 0-2.094-.383-2.867-1.155-.773-.774-1.155-1.727-1.156-2.89.001-1.161.383-2.114 1.156-2.888.773-.773 1.719-1.156 2.867-1.157 1.173.003 2.106.417 2.837 1.261l.101-.086-.093-.096-.716.693.093.096.104-.084c-.565-.71-1.357-1.07-2.326-1.067-.903-.001-1.68.308-2.302.922-.626.613-.94 1.426-.938 2.406-.002.982.312 1.795.938 2.408.621.612 1.399.923 2.302.922.997.001 1.86-.408 2.558-1.207l-.101-.088-.093.095.714.714.095-.094-.103-.086c-.353.424-.793.76-1.33 1.008a4.049 4.049 0 01-1.74.374v.266a4.35 4.35 0 001.854-.397 4.02 4.02 0 001.42-1.08l.079-.093-.901-.902-.095.107c-.659.75-1.434 1.115-2.358 1.116-.842-.001-1.537-.28-2.113-.845h-.001c-.572-.563-.857-1.29-.859-2.218.002-.925.287-1.653.859-2.217h.001c.576-.564 1.27-.843 2.114-.844.905.003 1.597.32 2.118.967l.09.114.822-.796.09-.086-.08-.096c-.775-.9-1.803-1.355-3.04-1.354-1.209-.001-2.237.414-3.056 1.235-.823.82-1.235 1.857-1.235 3.077 0 1.222.412 2.26 1.234 3.08.82.82 1.849 1.234 3.056 1.232v-.266zm7.348-.155h-1.03v-7.016h-2.234v-.984h5.498v.984h-2.235v7.016z" fill="#fff"/><path d="M85.791 17.418v-.133h-.896v-7.016h-2.233v-.717h5.23v.717h-2.234v7.15h.266v-6.883h2.235V9.285h-5.764v1.25h2.234v7.017h1.295v-.134h-.133zm9.329-8.133l-3.026 6.75c-.419.953-1.039 1.428-1.865 1.428-.247 0-.511-.058-.795-.178l.268-.95c.172.098.35.146.536.146.239 0 .424-.047.553-.14.13-.092.252-.263.364-.508l.29-.638-2.692-5.91h1.206l1.977 4.593h.046l1.932-4.593h1.207z" fill="#fff"/><path d="M95.125 9.418l-.121-.053-3.028 6.748v.001c-.412.924-.974 1.346-1.743 1.35-.225 0-.472-.053-.743-.168l-.052.123.128.037.268-.95-.128-.037-.065.116c.19.108.392.163.601.163.255 0 .468-.048.632-.164.16-.116.288-.306.407-.562l.29-.637.026-.056-2.632-5.777h.912l1.977 4.593h.22l1.932-4.593h1.12v-.267h-1.297l-1.967 4.675.124.052v-.134h-.045v.134l.123-.054-2.012-4.673H88.55l2.754 6.044-.266.583c-.106.233-.22.384-.32.454-.097.071-.253.115-.476.115a.94.94 0 01-.47-.128l-.148-.084-.346 1.227.108.047c.296.123.58.188.847.188.884.003 1.563-.529 1.987-1.51v.001l3.11-6.937h-.205v.133zm1.145 7.867v-8h5.788v8h-1.029v-7.016h-3.73v7.016H96.27z" fill="#fff"/><path d="M96.252 17.418h.134V9.552h5.521v7.733h-.763v-7.016h-3.997v7.016h-.895v.267h1.162v-7.016h3.464v7.016h1.296V9.285h-6.055v8.267h.133v-.134zm7.637-.133v-8h1.027v3.43h4v-3.43h1.029v8h-1.029v-3.61h-4v3.61h-1.027z" fill="#fff"/><path d="M103.871 17.418h.134V9.552h.76v3.43h4.266v-3.43h.763v7.733h-.763v-3.61h-4.266v3.61h-.894v.267h1.16v-3.61h3.734v3.61h1.296V9.285h-1.296v3.43h-3.734v-3.43h-1.293v8.267h.133v-.134zm9.322-1.858c.592.598 1.316.898 2.173.898.858 0 1.582-.3 2.174-.899.592-.6.889-1.365.889-2.297 0-.93-.297-1.696-.889-2.296-.592-.599-1.316-.899-2.174-.899-.857 0-1.581.3-2.173.899-.591.6-.888 1.365-.888 2.296 0 .932.297 1.697.888 2.297zm5.107.668c-.787.81-1.764 1.212-2.934 1.212-1.169 0-2.146-.402-2.932-1.212-.786-.808-1.178-1.797-1.178-2.966 0-1.17.392-2.158 1.178-2.966.786-.809 1.763-1.213 2.932-1.213 1.163 0 2.138.407 2.928 1.219s1.185 1.798 1.185 2.96c0 1.17-.394 2.159-1.179 2.966z" fill="#fff"/><path d="M113.226 15.693l-.095.093c.615.624 1.38.94 2.268.939.888.001 1.655-.315 2.268-.939.619-.624.929-1.43.928-2.39.001-.96-.309-1.766-.928-2.39-.613-.624-1.38-.94-2.268-.939-.888-.001-1.653.315-2.268.939-.617.624-.928 1.43-.927 2.39-.001.96.31 1.766.927 2.39l.095-.093.094-.095c-.565-.575-.848-1.299-.849-2.203.001-.902.284-1.626.849-2.202v.001c.571-.576 1.254-.859 2.079-.86.825.001 1.509.284 2.079.859l.004.005-.004-.004c.566.575.849 1.299.85 2.201-.001.904-.284 1.628-.85 2.203-.57.576-1.254.859-2.079.86-.825-.001-1.508-.284-2.079-.86l-.094.095zm5.01.576c-.764.784-1.698 1.17-2.837 1.172-1.139-.002-2.073-.388-2.837-1.172-.763-.786-1.139-1.734-1.14-2.874.001-1.138.377-2.086 1.14-2.872.764-.784 1.698-1.172 2.837-1.173 1.132.001 2.064.39 2.833 1.179.766.789 1.144 1.734 1.146 2.866-.002 1.14-.379 2.088-1.142 2.874l.192.186c.808-.83 1.218-1.86 1.216-3.06.002-1.192-.409-2.218-1.221-3.053-.812-.836-1.831-1.26-3.024-1.259-1.2-.001-2.22.42-3.028 1.254-.809.83-1.217 1.86-1.216 3.058-.001 1.2.407 2.23 1.216 3.06.808.834 1.828 1.254 3.028 1.252 1.2.002 2.22-.418 3.029-1.252l-.192-.186zm6.509.031h2.068c.394 0 .714-.137.961-.413.245-.274.368-.577.368-.905 0-.328-.127-.627-.38-.899-.252-.272-.585-.41-.995-.41h-2.022V16.3zm0-3.586h1.866c.388 0 .699-.128.934-.386.234-.257.352-.538.352-.843 0-.306-.114-.586-.342-.838-.226-.253-.526-.38-.898-.38h-1.912v2.447zm-1.027 4.57v-8h2.893c.626 0 1.168.207 1.626.62.458.414.688.932.688 1.558 0 .38-.099.716-.298 1.007-.196.29-.458.509-.786.658v.044c.393.135.718.366.972.694.252.328.38.707.38 1.14 0 .655-.24 1.198-.722 1.63a2.463 2.463 0 01-1.704.648h-3.049z" fill="#fff"/><path d="M124.727 16.434v.133h2.068c.425.002.792-.154 1.06-.459.264-.293.404-.632.403-.993.001-.363-.144-.7-.416-.99-.276-.3-.654-.453-1.092-.451h-2.156v2.893h.133v-.133h.133V13.94h1.89c.381.003.668.123.897.367.235.253.343.516.344.808-.001.295-.107.56-.335.816-.222.248-.497.368-.861.37h-2.068v.133zm0-3.587v.133h1.867c.416.002.773-.142 1.032-.429.252-.274.386-.592.386-.933a1.36 1.36 0 00-.376-.927c-.249-.281-.596-.427-.997-.424h-2.045v2.713h.133v-.133h.133v-2.313h1.779c.343.001.596.11.799.336.209.233.306.477.308.748-.002.27-.102.516-.318.753-.21.23-.476.34-.834.343h-1.867v.133zm-1.027 4.57h.134V9.55h2.76c.596.001 1.1.195 1.536.586.433.393.642.867.644 1.46 0 .357-.092.662-.274.93v.001c-.184.27-.425.472-.733.612l-.077.036v.225l.089.031c.372.127.672.34.911.648.234.307.352.653.352 1.059-.002.623-.223 1.121-.678 1.532-.458.41-.988.613-1.614.613h-3.05v.267h3.05a2.6 2.6 0 001.793-.683 2.23 2.23 0 00.765-1.73 1.943 1.943 0 00-.408-1.22 2.158 2.158 0 00-1.034-.738l-.043.126h.133v-.044h-.133l.055.12c.348-.156.633-.394.842-.704.214-.314.32-.678.32-1.082a2.143 2.143 0 00-.732-1.657 2.49 2.49 0 00-1.714-.655h-3.027v8.267h.133v-.134z" fill="#fff"/><defs><linearGradient id="paint5_linear" x1="34.036" y1="29.681" x2="3.692" y2="-.663" gradientUnits="userSpaceOnUse"><stop stop-color="#CC2D36"/><stop offset="1" stop-color="#9C0E4D"/></linearGradient><linearGradient id="paint0_linear" x1="30" y1="11.562" x2="14.085" y2="42.987" gradientUnits="userSpaceOnUse"><stop stop-color="#00A0FF"/><stop offset="1" stop-color="#00E2FF"/></linearGradient><linearGradient id="paint2_linear" x1="34.026" y1="29.687" x2="2.174" y2="55.515" gradientUnits="userSpaceOnUse"><stop stop-color="#FF3A44"/><stop offset="1" stop-color="#C31162"/></linearGradient><linearGradient id="paint3_linear" x1="33.693" y1="-1.727" x2="28.83" y2="22.587" gradientUnits="userSpaceOnUse"><stop stop-color="#31A070"/><stop offset="1" stop-color="#00EF75"/></linearGradient><linearGradient id="paint4_linear" x1="46.088" y1="26.613" x2="13.553" y2="26.613" gradientUnits="userSpaceOnUse"><stop stop-color="#CCB300"/><stop offset="1" stop-color="#CC7C00"/></linearGradient><linearGradient id="paint1_linear" x1="46.033" y1="26.63" x2="21.161" y2="26.63" gradientUnits="userSpaceOnUse"><stop stop-color="#FFDF00"/><stop offset="1" stop-color="#FF9C00"/></linearGradient><linearGradient id="paint6_linear" x1="30" y1="11.566" x2="7.623" y2="-10.811" gradientUnits="userSpaceOnUse"><stop stop-color="#008CDF"/><stop offset="1" stop-color="#00C6DF"/></linearGradient><linearGradient id="paint7_linear" x1="46.033" y1="26.639" x2="13.771" y2="26.639" gradientUnits="userSpaceOnUse"><stop stop-color="#DFC400"/><stop offset="1" stop-color="#DF8900"/></linearGradient><linearGradient id="paint8_linear" x1="46.01" y1="26.62" x2="13.747" y2="26.62" gradientUnits="userSpaceOnUse"><stop stop-color="#FFE83F"/><stop offset="1" stop-color="#FFB53F"/></linearGradient><linearGradient id="paint9_linear" x1="30" y1="11.546" x2="7.623" y2="-10.83" gradientUnits="userSpaceOnUse"><stop stop-color="#3FB8FF"/><stop offset="1" stop-color="#3FE9FF"/></linearGradient><linearGradient id="paint10_linear" x1="10.651" y1=".198" x2="24.202" y2="-13.352" gradientUnits="userSpaceOnUse"><stop stop-color="#64B895"/><stop offset="1" stop-color="#3FF497"/></linearGradient></defs></svg>