<svg width="200" height="64" viewBox="0 0 200 64" fill="none" xmlns="http://www.w3.org/2000/svg"><path d="M12.957.036c5.822.047 11.647-.047 17.468.029-.01 16.309.032 32.621-.021 48.934 2.156.04 4.316.014 6.473.01.554 1.399.306 2.916.33 4.378.015 3.522.015 7.044.033 10.566-1.983.018-3.97.015-5.955.004-.003-2.972-.028-5.944.026-8.917-8.439-.046-16.881-.04-25.32-.007-.025 2.987.057 5.98-.04 8.967-1.976-.065-3.956-.04-5.933-.029C.008 59.073.04 54.174 0 49.28c2.096-.036 4.194.05 6.293-.046-.028-2.24.573-4.41.742-6.627 1.18-7.533 2.117-15.106 3.2-22.656.206-1.815.32-3.645.739-5.427.651-4.834 1.256-9.668 1.983-14.487zm5.31 5.743c-1.191 9.463-2.631 18.882-3.902 28.33-.641 5.072-1.57 10.107-2.052 15.192 3.989.01 7.978-.061 11.963.032.177-4.514.018-9.038.076-13.556-.05-10.016.097-20.04-.083-30.052-2.002.018-4 .01-6.002.054zM52.627.047c2.07-.036 4.137-.025 6.203.007 3 16.183 6.193 32.338 9.239 48.514.417 2.138.957 4.273 1.022 6.462-1.793-.022-3.59 0-5.382-.015-.9-3.701-1.458-7.479-2.16-11.22-3.885-.04-7.766.007-11.65-.025-.505 2.789-1.001 5.574-1.56 8.352-.262.924-.323 1.887-.356 2.846-1.919.083-3.841.018-5.764.087.076-2.056.717-4.036 1.052-6.06 2.62-13.599 5.227-27.209 7.87-40.808.471-2.717 1.18-5.398 1.486-8.14zm2.679 15.586c-.89 5.14-2.099 10.221-2.938 15.372-.378 2.285-1.047 4.524-1.163 6.85 3.053-.015 6.11.046 9.163-.036-1.43-8.126-3.323-16.166-4.45-24.338-.19.718-.436 1.426-.612 2.152zM75.25 0c7.337.068 14.678.061 22.015.014.266 1.736.122 3.504.147 5.258-.115.119-.345.363-.457.485-5.242 0-10.484-.003-15.725-.003-.522 1.962.007 3.957-.08 5.944-.017 6.279.026 12.557-.028 18.836 3.085.273 6.264-.403 9.274.524 4.111 1.046 7.538 4.439 8.6 8.543.944 3.594.188 7.601-2.095 10.552-2.286 3.166-6.21 4.855-10.059 4.877-3.873-.008-7.747-.054-11.621.021-.158-17.563-.014-35.137-.072-52.704-.01-.784.018-1.567.1-2.347zm5.933 36.291c-.083 4.338-.032 8.68-.036 13.017 2.254-.05 4.507.011 6.757-.032 4.072-.417 6.743-5.283 5.051-8.97-.658-2.125-2.642-3.5-4.727-4-2.347-.044-4.698.003-7.045-.015zm28.14-36.27c8.053.015 16.103.062 24.157-.014.097.65.23 1.305.23 1.97-.014 17.024-.018 34.048.011 51.072.011.665-.13 1.323-.238 1.98-1.944-.075-3.888.069-5.828-.075.093-16.399.054-32.798.021-49.193-4.169.007-8.334-.058-12.499.032-.051 13.114.054 26.232-.051 39.343-.669 4.003-3.647 7.482-7.409 8.988-1.85.848-3.935.532-5.908.65a401.543 401.543 0 01-.014-5.488c3.391.586 6.995-1.782 7.506-5.225.043-14.68.018-29.358.022-44.04zm84.625.015c2.005 0 4.014-.032 6.023.029.069 18.307-.018 36.618.029 54.929-2.038 0-4.079.093-6.113-.054.09-12.873.011-25.75.054-38.624-.709 1.244-1.141 2.61-1.613 3.95-3.831 10.271-7.668 20.539-11.481 30.818-.587 1.279-.763 2.788-1.649 3.906-1.893.086-3.794-.04-5.688.061-.169-8.338-.014-16.686-.068-25.024.021-10.006-.051-20.007.025-30.009 1.85.047 3.701-.018 5.555.022.111.122.342.359.453.478.029 12.61-.007 25.225.004 37.836.807-1.682 1.404-3.447 2.034-5.197 4.212-11.015 8.173-22.127 12.435-33.121zm-52.609.277c7.431-.04 14.865-.022 22.296-.015-.004 1.826-.015 3.652-.011 5.477-5.393-.057-10.786.004-16.179-.04-.004 8.378-.087 16.76.039 25.137 2.931 0 5.872-.151 8.799.086 3.795.855 7.035 3.712 8.475 7.306.835 1.934.824 4.08.698 6.146-.309 3.292-2.242 6.31-4.896 8.24-2.563 1.848-5.821 2.495-8.932 2.376-3.406-.065-6.811.065-10.21-.072-.147-18.206.004-36.431-.079-54.641zm6.084 35.964c-.007 4.345-.011 8.694.004 13.038 2.243-.06 4.486.008 6.725-.029 1.901-.28 3.575-1.52 4.579-3.137 1.048-1.56.818-3.558.648-5.322-.597-2.408-2.84-4.212-5.27-4.518-2.229-.043-4.457.029-6.686-.032z" fill="#1F1F1F"/></svg>