<svg width="167" height="55" viewBox="0 0 167 55" fill="none" xmlns="http://www.w3.org/2000/svg">
<path d="M10.7694 54.0107C10.3384 54.0107 9.91785 54.0052 9.49028 53.9956C8.60452 53.9841 7.72083 53.9072 6.84645 53.7655C6.03115 53.6255 5.24133 53.3651 4.50306 52.9927C3.77156 52.6235 3.10438 52.1393 2.52706 51.5588C1.94139 50.9851 1.45379 50.3198 1.08359 49.5891C0.709312 48.8536 0.450287 48.0653 0.315541 47.2516C0.170028 46.3772 0.0912992 45.4931 0.0800339 44.6069C0.0710662 44.3094 0.0593262 43.319 0.0593262 43.319V10.7356C0.0593262 10.7356 0.0718301 9.7604 0.0801046 9.47388C0.0908911 8.58905 0.169162 7.70632 0.31424 6.83333C0.449234 6.01738 0.70846 5.2268 1.08294 4.48894C1.45178 3.75874 1.93667 3.09287 2.51882 2.51713C3.1003 1.93592 3.76963 1.44928 4.50237 1.07494C5.23894 0.703812 6.02726 0.445182 6.84092 0.307711C7.71817 0.164638 8.60492 0.0872865 9.49376 0.0763042L10.7701 0.059082H156.132L157.424 0.0769954C158.304 0.087432 159.183 0.164094 160.052 0.306328C160.874 0.445524 161.671 0.705959 162.416 1.07907C163.884 1.83347 165.078 3.027 165.831 4.49238C166.2 5.22515 166.455 6.00928 166.589 6.81818C166.735 7.69833 166.817 8.588 166.834 9.48009C166.838 9.87954 166.838 10.3086 166.838 10.7356C166.85 11.2646 166.85 11.768 166.85 12.2756V41.7955C166.85 42.3079 166.85 42.8079 166.838 43.312C166.838 43.7707 166.838 44.1909 166.833 44.6234C166.816 45.4996 166.736 46.3733 166.591 47.2378C166.459 48.0573 166.202 48.8518 165.827 49.5933C165.455 50.3161 164.97 50.9757 164.391 51.5478C163.813 52.1315 163.145 52.6184 162.411 52.9901C161.669 53.3652 160.873 53.6267 160.052 53.7655C159.178 53.9079 158.294 53.9848 157.408 53.9956C156.994 54.0052 156.56 54.0107 156.139 54.0107L154.606 54.0135L10.7694 54.0107Z" fill="black"/>
<path d="M33.8591 27.4594C33.8744 26.2821 34.1879 25.1277 34.7707 24.1038C35.3535 23.0798 36.1866 22.2195 37.1924 21.6029C36.5534 20.6929 35.7105 19.944 34.7305 19.4157C33.7505 18.8874 32.6605 18.5942 31.5471 18.5595C29.1719 18.3109 26.8692 19.9768 25.6588 19.9768C24.425 19.9768 22.5615 18.5842 20.5547 18.6253C19.2567 18.6671 17.9917 19.0435 16.883 19.7178C15.7742 20.3921 14.8595 21.3414 14.228 22.473C11.4924 27.1959 13.5329 34.1371 16.1533 37.9547C17.4644 39.8241 18.9967 41.9123 21.0016 41.8383C22.9635 41.7571 23.6963 40.5907 26.0645 40.5907C28.4107 40.5907 29.0982 41.8383 31.1438 41.7912C33.2491 41.7571 34.5755 39.9135 35.8405 38.0264C36.7825 36.6943 37.5074 35.2222 37.9883 33.6644C36.7652 33.1485 35.7214 32.285 34.9872 31.1816C34.2529 30.0782 33.8606 28.7836 33.8591 27.4594Z" fill="white"/>
<path d="M29.9954 16.0485C31.1433 14.6744 31.7088 12.9082 31.5719 11.125C29.8182 11.3087 28.1983 12.1445 27.0349 13.4659C26.4661 14.1114 26.0304 14.8624 25.7529 15.676C25.4753 16.4895 25.3612 17.3496 25.4172 18.2071C26.2943 18.2161 27.1621 18.0265 27.9551 17.6526C28.7482 17.2787 29.4458 16.7302 29.9954 16.0485Z" fill="white"/>
<path d="M58.6594 37.105H51.9642L50.3563 41.8393H47.5205L53.8621 24.3237H56.8084L63.15 41.8393H60.2658L58.6594 37.105ZM52.6576 34.9204H57.9646L55.3484 27.237H55.2752L52.6576 34.9204Z" fill="white"/>
<path d="M76.8457 35.4549C76.8457 39.4233 74.7157 41.9729 71.5014 41.9729C70.6872 42.0154 69.8774 41.8284 69.1648 41.4332C68.4522 41.0381 67.8656 40.4509 67.4722 39.7387H67.4113V46.0639H64.7827V29.0691H67.3271V31.1931H67.3755C67.787 30.4844 68.3835 29.9001 69.1016 29.5026C69.8196 29.1051 70.6323 28.9091 71.4531 28.9355C74.7033 28.9355 76.8457 31.4975 76.8457 35.4549ZM74.1439 35.4549C74.1439 32.8695 72.804 31.1697 70.7597 31.1697C68.7512 31.1697 67.4003 32.9053 67.4003 35.4549C67.4003 38.028 68.7512 39.7511 70.7597 39.7511C72.804 39.7511 74.1439 38.0638 74.1439 35.4549Z" fill="white"/>
<path d="M90.9404 35.4549C90.9404 39.4233 88.8105 41.9729 85.5962 41.9729C84.7819 42.0154 83.9722 41.8284 83.2596 41.4332C82.547 41.0381 81.9604 40.4508 81.5669 39.7387H81.5061V46.0639H78.8774V29.0691H81.4218V31.1931H81.4701C81.8817 30.4844 82.4782 29.9001 83.1962 29.5026C83.9143 29.1051 84.7269 28.9091 85.5478 28.9355C88.798 28.9355 90.9404 31.4975 90.9404 35.4549ZM88.2386 35.4549C88.2386 32.8694 86.8987 31.1697 84.8544 31.1697C82.846 31.1697 81.4951 32.9052 81.4951 35.4549C81.4951 38.0279 82.846 39.7511 84.8544 39.7511C86.8987 39.7511 88.2386 38.0638 88.2386 35.4549H88.2386Z" fill="white"/>
<path d="M100.256 36.9591C100.451 38.6961 102.143 39.8365 104.455 39.8365C106.671 39.8365 108.265 38.696 108.265 37.1298C108.265 35.7703 107.303 34.9563 105.027 34.3984L102.751 33.8515C99.5253 33.0746 98.028 31.5705 98.028 29.1296C98.028 26.1075 100.669 24.0317 104.419 24.0317C108.131 24.0317 110.675 26.1075 110.761 29.1296H108.107C107.949 27.3817 106.5 26.3266 104.382 26.3266C102.264 26.3266 100.815 27.3941 100.815 28.9478C100.815 30.1862 101.741 30.9148 104.005 31.4726L105.94 31.9465C109.544 32.7964 111.041 34.2399 111.041 36.8019C111.041 40.0789 108.424 42.1313 104.26 42.1313C100.365 42.1313 97.7351 40.1271 97.5652 36.959L100.256 36.9591Z" fill="white"/>
<path d="M116.714 26.0469V29.069H119.15V31.1448H116.714V38.1849C116.714 39.2786 117.202 39.7882 118.272 39.7882C118.561 39.7832 118.85 39.763 119.137 39.7276V41.791C118.656 41.8807 118.167 41.9213 117.677 41.9122C115.084 41.9122 114.073 40.9411 114.073 38.4645V31.1448H112.211V29.069H114.073V26.0469H116.714Z" fill="white"/>
<path d="M120.56 35.4549C120.56 31.437 122.933 28.9121 126.634 28.9121C130.347 28.9121 132.709 31.4369 132.709 35.4549C132.709 39.484 130.359 41.9978 126.634 41.9978C122.91 41.9978 120.56 39.4839 120.56 35.4549ZM130.03 35.4549C130.03 32.6987 128.764 31.0719 126.634 31.0719C124.504 31.0719 123.238 32.7111 123.238 35.4549C123.238 38.2222 124.504 39.8366 126.634 39.8366C128.764 39.8366 130.03 38.2222 130.03 35.4549H130.03Z" fill="white"/>
<path d="M134.876 29.069H137.383V31.2425H137.444C137.613 30.5637 138.012 29.9638 138.573 29.5436C139.134 29.1234 139.823 28.9086 140.524 28.9353C140.827 28.9343 141.129 28.9671 141.425 29.0331V31.485C141.042 31.3684 140.643 31.3149 140.244 31.3266C139.862 31.3111 139.481 31.3783 139.128 31.5234C138.774 31.6685 138.456 31.8882 138.196 32.1673C137.936 32.4464 137.739 32.7784 137.62 33.1404C137.501 33.5025 137.461 33.886 137.504 34.2646V41.8392H134.876L134.876 29.069Z" fill="white"/>
<path d="M153.544 38.0886C153.19 40.4068 150.926 41.9978 148.03 41.9978C144.304 41.9978 141.992 39.5087 141.992 35.5156C141.992 31.51 144.317 28.9121 147.919 28.9121C151.462 28.9121 153.69 31.3392 153.69 35.2111V36.1092H144.646V36.2676C144.604 36.7376 144.663 37.2111 144.819 37.6566C144.975 38.1021 145.224 38.5094 145.55 38.8515C145.875 39.1936 146.27 39.4627 146.709 39.6408C147.147 39.819 147.618 39.9021 148.091 39.8848C148.712 39.9428 149.335 39.7994 149.868 39.4757C150.401 39.1521 150.815 38.6656 151.048 38.0886L153.544 38.0886ZM144.658 34.2772H151.06C151.084 33.8547 151.02 33.4318 150.872 33.0351C150.724 32.6385 150.495 32.2766 150.2 31.9723C149.905 31.668 149.55 31.4277 149.158 31.2666C148.765 31.1055 148.344 31.027 147.919 31.0361C147.491 31.0336 147.067 31.1156 146.671 31.2774C146.275 31.4393 145.915 31.6777 145.612 31.9791C145.308 32.2804 145.068 32.6386 144.904 33.0331C144.741 33.4275 144.657 33.8504 144.658 34.2772V34.2772Z" fill="white"/>
<path d="M50.7893 14.6976H51.9179C52.1121 14.7217 52.3093 14.7054 52.497 14.6498C52.6846 14.5942 52.8587 14.5004 53.0082 14.3743C53.1577 14.2483 53.2794 14.0927 53.3656 13.9174C53.4518 13.7422 53.5007 13.551 53.5091 13.3559C53.5091 12.5798 52.9234 12.0784 51.9303 12.0784C51.7313 12.0506 51.5287 12.0629 51.3345 12.1146C51.1403 12.1662 50.9585 12.2561 50.7997 12.379C50.6409 12.5019 50.5085 12.6552 50.4101 12.83C50.3118 13.0048 50.2496 13.1974 50.2271 13.3966H48.9881C49.0094 13.0351 49.1051 12.6818 49.2693 12.3588C49.4335 12.0358 49.6625 11.7499 49.9423 11.519C50.2221 11.2881 50.5465 11.1171 50.8954 11.0166C51.2443 10.9162 51.6102 10.8884 51.9703 10.9351C53.632 10.9351 54.8021 11.8628 54.8021 13.1982C54.806 13.6456 54.6559 14.0808 54.3768 14.4311C54.0978 14.7814 53.7067 15.0257 53.2688 15.1232V15.2224C53.7879 15.2453 54.2768 15.4723 54.6285 15.8537C54.9803 16.235 55.1663 16.7398 55.146 17.2575C55.1076 17.6298 54.995 17.9906 54.815 18.3189C54.6349 18.6472 54.3909 18.9363 54.0973 19.1693C53.8038 19.4024 53.4665 19.5746 53.1053 19.676C52.7441 19.7774 52.3662 19.8058 51.9938 19.7597C51.6207 19.8104 51.2411 19.7857 50.8777 19.687C50.5144 19.5883 50.1746 19.4177 49.8788 19.1853C49.583 18.9529 49.3371 18.6635 49.1558 18.3343C48.9746 18.0051 48.8616 17.6429 48.8237 17.2693H50.0821C50.1581 18.0744 50.8998 18.5937 51.9938 18.5937C53.0878 18.5937 53.802 18.0104 53.802 17.188C53.802 16.354 53.1293 15.8402 51.9538 15.8402H50.7893V14.6976Z" fill="white"/>
<path d="M56.5757 17.7593C56.5757 16.616 57.4307 15.9569 58.9446 15.8633L60.6699 15.7641V15.2159C60.6699 14.5451 60.2265 14.1663 59.3659 14.1663C58.6642 14.1663 58.1794 14.4232 58.0385 14.8722H56.8216C56.95 13.7813 57.9805 13.0815 59.4253 13.0815C61.0221 13.0815 61.9227 13.8742 61.9227 15.2159V19.5555H60.7113V18.6629H60.6119C60.41 18.9831 60.1265 19.2441 59.7904 19.4193C59.4543 19.5945 59.0776 19.6776 58.6988 19.6602C58.4314 19.6879 58.1611 19.6594 57.9055 19.5767C57.6498 19.4939 57.4143 19.3586 57.2143 19.1795C57.0143 19.0004 56.8541 18.7815 56.7441 18.5369C56.6341 18.2923 56.5767 18.0274 56.5757 17.7593ZM60.6699 17.2166V16.6856L59.1145 16.7848C58.2373 16.8433 57.8395 17.1409 57.8395 17.7008C57.8395 18.2724 58.3368 18.6051 59.0206 18.6051C59.2209 18.6253 59.4233 18.6051 59.6157 18.5458C59.8081 18.4864 59.9865 18.389 60.1404 18.2595C60.2943 18.13 60.4205 17.9709 60.5114 17.7917C60.6024 17.6125 60.6563 17.417 60.6699 17.2166Z" fill="white"/>
<path d="M65.2585 14.2592V19.5555H64.0015V13.2041H68.1952V14.2592L65.2585 14.2592Z" fill="white"/>
<path d="M75.8132 16.3776C75.8132 18.3955 74.7896 19.6607 73.1818 19.6607C72.7871 19.6876 72.3929 19.6015 72.0457 19.4125C71.6984 19.2235 71.4125 18.9394 71.2217 18.5939H71.1222V21.6676H69.8652V13.2046H71.0753V14.2543H71.1692C71.3635 13.8966 71.6531 13.5995 72.006 13.3957C72.359 13.1919 72.7616 13.0893 73.1693 13.0993C74.7896 13.0993 75.8132 14.3589 75.8132 16.3776ZM74.5203 16.3776C74.5203 15.0359 73.8835 14.2253 72.8185 14.2253C71.7605 14.2253 71.0988 15.0532 71.0988 16.3831C71.0988 17.7068 71.7604 18.5353 72.813 18.5353C73.8835 18.5353 74.5203 17.7247 74.5203 16.3776Z" fill="white"/>
<path d="M77.4872 21.8303V20.7511C77.6232 20.7683 77.7602 20.7762 77.8973 20.7745C78.1652 20.7943 78.4308 20.7148 78.6435 20.5512C78.8561 20.3876 79.0006 20.1515 79.0493 19.8881L79.1433 19.5789L76.8379 13.2041H78.2068L79.8036 18.249H79.9031L81.4943 13.2041H82.8273L80.4528 19.8179C79.9086 21.3634 79.3064 21.8593 78.0079 21.8593C77.9029 21.8593 77.6046 21.8475 77.4872 21.8303Z" fill="white"/>
<path d="M83.8066 17.7534H85.0581C85.181 18.3134 85.7074 18.6054 86.4436 18.6054C87.2806 18.6054 87.7945 18.2376 87.7945 17.666C87.7945 17.0537 87.3331 16.7617 86.4436 16.7617H85.4905V15.7878H86.427C87.1867 15.7878 87.5735 15.4965 87.5735 14.9655C87.5735 14.4993 87.1991 14.1432 86.427 14.1432C85.7239 14.1432 85.2101 14.4407 85.1285 14.9421H83.9172C84.0077 14.366 84.3214 13.8483 84.7908 13.5004C85.2601 13.1526 85.8477 13.0023 86.427 13.0819C87.9409 13.0819 88.807 13.7644 88.807 14.8374C88.8141 15.1362 88.7181 15.4284 88.535 15.6651C88.352 15.9018 88.093 16.0686 87.8014 16.1377V16.2369C88.1486 16.2816 88.4672 16.4518 88.6969 16.7152C88.9266 16.9786 89.0513 17.317 89.0473 17.666C89.0473 18.8734 88.0169 19.6722 86.4436 19.6722C85.0526 19.6722 83.9227 19.0365 83.8066 17.7534Z" fill="white"/>
<path d="M90.8577 19.5555V13.2041H92.1036V17.5727H92.2031L95.1383 13.2041H96.3843V19.5555H95.1383V15.1635H95.0444L92.1036 19.5555L90.8577 19.5555Z" fill="white"/>
<path d="M103.248 14.2596H101.242V19.5559H99.984V14.2596H97.9783V13.2046H103.248V14.2596Z" fill="white"/>
<path d="M110.019 17.8407C109.848 18.4212 109.478 18.9232 108.973 19.259C108.468 19.5949 107.861 19.7432 107.258 19.6782C106.838 19.6893 106.421 19.6091 106.036 19.4433C105.65 19.2776 105.306 19.0301 105.026 18.7182C104.746 18.4063 104.537 18.0374 104.415 17.637C104.292 17.2367 104.258 16.8146 104.316 16.3999C104.26 15.984 104.294 15.5609 104.417 15.1594C104.539 14.7579 104.746 14.3872 105.025 14.0726C105.303 13.7579 105.646 13.5066 106.031 13.3357C106.415 13.1647 106.832 13.0781 107.252 13.0816C109.025 13.0816 110.095 14.289 110.095 16.2835V16.7209H105.598V16.7911C105.578 17.0242 105.607 17.259 105.683 17.4802C105.76 17.7013 105.882 17.9041 106.042 18.0755C106.201 18.2469 106.395 18.383 106.611 18.4752C106.827 18.5673 107.059 18.6135 107.294 18.6107C107.594 18.6465 107.899 18.5924 108.168 18.4553C108.438 18.3182 108.66 18.1043 108.808 17.8407L110.019 17.8407ZM105.598 15.7938H108.813C108.829 15.5808 108.8 15.3668 108.728 15.1655C108.656 14.9643 108.543 14.7803 108.395 14.6254C108.248 14.4704 108.069 14.348 107.872 14.2658C107.674 14.1837 107.461 14.1437 107.247 14.1485C107.029 14.1455 106.814 14.1861 106.612 14.2677C106.411 14.3494 106.228 14.4705 106.074 14.6239C105.92 14.7773 105.799 14.9598 105.717 15.1608C105.635 15.3617 105.595 15.577 105.598 15.7938H105.598Z" fill="white"/>
<path d="M115.348 13.2041H118.22C119.466 13.2041 120.197 13.8336 120.197 14.8191C120.198 15.1318 120.093 15.4357 119.897 15.68C119.701 15.9242 119.427 16.0939 119.12 16.1607V16.2599C119.492 16.2834 119.841 16.4484 120.095 16.7209C120.348 16.9933 120.487 17.3525 120.482 17.7241C120.482 18.8323 119.647 19.5555 118.249 19.5555H115.348V13.2041ZM116.594 14.1662V15.8109H117.84C118.6 15.8109 118.963 15.5196 118.963 14.9824C118.963 14.4872 118.647 14.1662 117.98 14.1662L116.594 14.1662ZM116.594 16.7324V18.5934H118.085C118.828 18.5934 119.226 18.2662 119.226 17.6657C119.226 17.03 118.775 16.7324 117.927 16.7324L116.594 16.7324Z" fill="white"/>
</svg>
