<svg width="181" height="54" viewBox="0 0 181 54" fill="none" xmlns="http://www.w3.org/2000/svg">
<path d="M174.243 54H7.57585C3.90918 54 0.90918 50.9625 0.90918 47.25V6.75C0.90918 3.0375 3.90918 0 7.57585 0H174.243C177.909 0 180.909 3.0375 180.909 6.75V47.25C180.909 50.9625 177.909 54 174.243 54Z" fill="black"/>
<path d="M143.514 40.0788H146.002V23.4094H143.514V40.0788ZM165.924 29.4134L163.072 36.6401H162.986L160.026 29.4134H157.346L161.785 39.5148L159.254 45.1321H161.85L168.691 29.4134H165.924ZM151.814 38.1841C150.998 38.1841 149.862 37.7774 149.862 36.7694C149.862 35.4828 151.278 34.9894 152.5 34.9894C153.594 34.9894 154.108 35.2254 154.773 35.5468C154.58 37.0908 153.25 38.1841 151.814 38.1841ZM152.114 29.0494C150.313 29.0494 148.448 29.8428 147.676 31.6014L149.884 32.5241C150.356 31.6014 151.234 31.3014 152.157 31.3014C153.444 31.3014 154.752 32.0734 154.773 33.4454V33.6174C154.322 33.3601 153.358 32.9734 152.178 32.9734C149.798 32.9734 147.374 34.2814 147.374 36.7268C147.374 38.9561 149.326 40.3934 151.513 40.3934C153.186 40.3934 154.108 39.6428 154.688 38.7641H154.773V40.0508H157.174V33.6601C157.174 30.7001 154.966 29.0494 152.114 29.0494ZM136.738 31.4428H133.2V25.7294H136.738C138.598 25.7294 139.654 27.2694 139.654 28.5868C139.654 29.8788 138.598 31.4428 136.738 31.4428ZM136.674 23.4094H130.713V40.0788H133.2V33.7628H136.674C139.432 33.7628 142.142 31.7668 142.142 28.5868C142.142 25.4054 139.432 23.4094 136.674 23.4094ZM104.165 38.1881C102.447 38.1881 101.007 36.7481 101.007 34.7721C101.007 32.7748 102.447 31.3148 104.165 31.3148C105.862 31.3148 107.194 32.7748 107.194 34.7721C107.194 36.7481 105.862 38.1881 104.165 38.1881ZM107.022 30.3481H106.937C106.378 29.6814 105.303 29.0801 103.95 29.0801C101.115 29.0801 98.5151 31.5721 98.5151 34.7721C98.5151 37.9521 101.115 40.4214 103.95 40.4214C105.303 40.4214 106.378 39.8201 106.937 39.1334H107.022V39.9494C107.022 42.1188 105.862 43.2788 103.993 43.2788C102.468 43.2788 101.523 42.1828 101.136 41.2601L98.9671 42.1614C99.5898 43.6654 101.243 45.5134 103.993 45.5134C106.915 45.5134 109.385 43.7948 109.385 39.6054V29.4241H107.022V30.3481ZM111.103 40.0788H113.595V23.4094H111.103V40.0788ZM117.269 34.5788C117.203 32.3881 118.966 31.2708 120.233 31.2708C121.222 31.2708 122.059 31.7654 122.338 32.4748L117.269 34.5788ZM125.002 32.6894C124.53 31.4214 123.09 29.0801 120.147 29.0801C117.226 29.0801 114.798 31.3788 114.798 34.7508C114.798 37.9308 117.203 40.4214 120.426 40.4214C123.026 40.4214 124.53 38.8321 125.153 37.9081L123.219 36.6201C122.575 37.5654 121.694 38.1881 120.426 38.1881C119.158 38.1881 118.257 37.6081 117.677 36.4694L125.259 33.3334L125.002 32.6894ZM64.5894 30.8201V33.2254H70.3468C70.1748 34.5788 69.7241 35.5668 69.0361 36.2548C68.1988 37.0921 66.8881 38.0161 64.5894 38.0161C61.0454 38.0161 58.2747 35.1588 58.2747 31.6148C58.2747 28.0708 61.0454 25.2134 64.5894 25.2134C66.5014 25.2134 67.8975 25.9654 68.9295 26.9321L70.6255 25.2348C69.1868 23.8601 67.2748 22.8081 64.5894 22.8081C59.7347 22.8081 55.6533 26.7601 55.6533 31.6148C55.6533 36.4694 59.7347 40.4214 64.5894 40.4214C67.2108 40.4214 69.1868 39.5628 70.7335 37.9521C72.3228 36.3614 72.8175 34.1281 72.8175 32.3241C72.8175 31.7654 72.7735 31.2494 72.6882 30.8201H64.5894ZM79.3616 38.1881C77.6429 38.1881 76.1615 36.7708 76.1615 34.7508C76.1615 32.7108 77.6429 31.3148 79.3616 31.3148C81.0803 31.3148 82.5616 32.7108 82.5616 34.7508C82.5616 36.7708 81.0803 38.1881 79.3616 38.1881ZM79.3616 29.0801C76.2255 29.0801 73.6695 31.4641 73.6695 34.7508C73.6695 38.0161 76.2255 40.4214 79.3616 40.4214C82.4976 40.4214 85.0536 38.0161 85.0536 34.7508C85.0536 31.4641 82.4976 29.0801 79.3616 29.0801ZM91.7791 38.1881C90.0617 38.1881 88.579 36.7708 88.579 34.7508C88.579 32.7108 90.0617 31.3148 91.7791 31.3148C93.4977 31.3148 94.9804 32.7108 94.9804 34.7508C94.9804 36.7708 93.4977 38.1881 91.7791 38.1881ZM91.7791 29.0801C88.643 29.0801 86.087 31.4641 86.087 34.7508C86.087 38.0161 88.643 40.4214 91.7791 40.4214C94.9164 40.4214 97.4724 38.0161 97.4724 34.7508C97.4724 31.4641 94.9164 29.0801 91.7791 29.0801Z" fill="white"/>
<path fill-rule="evenodd" clip-rule="evenodd" d="M14.9452 43.1355L14.8466 43.0408C14.4586 42.6301 14.2292 41.9928 14.2292 41.1675V41.3608V11.8728C14.2292 11.8715 14.2292 11.8688 14.2292 11.8661V12.0688C14.2292 11.1755 14.4972 10.5008 14.9439 10.0981L31.4639 26.6168L14.9452 43.1355ZM14.2292 11.8648C14.2292 11.7915 14.2319 11.7195 14.2346 11.6501C14.2319 11.7195 14.2292 11.7915 14.2292 11.8648ZM14.2359 11.6461C14.2359 11.6461 14.2359 11.6448 14.2359 11.6435C14.2359 11.6448 14.2359 11.6461 14.2359 11.6461ZM14.2359 11.6368V11.6355V11.6368Z" fill="url(#paint0_linear)"/>
<path fill-rule="evenodd" clip-rule="evenodd" d="M36.9568 32.3332L37.0821 32.2612L43.6061 28.5546C44.2288 28.2012 44.6434 27.7732 44.8501 27.3186C44.6434 27.7732 44.2288 28.2012 43.6061 28.5559L37.0821 32.2626L36.9568 32.3332ZM36.9581 32.1372L31.4514 26.6292L36.9581 21.1226L43.6061 24.8999C44.4514 25.3786 44.9248 25.9972 45.0034 26.6292C45.0034 26.6292 45.0034 26.6306 45.0034 26.6319C44.9248 27.2612 44.4514 27.8799 43.6061 28.3599L36.9581 32.1372Z" fill="url(#paint1_linear)"/>
<path fill-rule="evenodd" clip-rule="evenodd" d="M16.1142 43.5786C15.6529 43.58 15.2502 43.4293 14.9355 43.1453L31.4537 26.627L36.9602 32.1348L17.6075 43.132C17.0728 43.436 16.5648 43.5786 16.1142 43.5786Z" fill="url(#paint2_linear)"/>
<path fill-rule="evenodd" clip-rule="evenodd" d="M31.4551 26.6307L14.9355 10.1124C15.2502 9.8297 15.6515 9.67904 16.1128 9.67904C16.5648 9.67904 17.0728 9.82303 17.6088 10.1284L36.9616 21.1242L31.4551 26.6307ZM37.0856 21.0002L17.6088 9.9337C17.0728 9.62837 16.5648 9.48438 16.1128 9.48438C16.1115 9.48438 16.1088 9.48438 16.1075 9.48438C16.1088 9.48438 16.1115 9.48438 16.1142 9.48438C16.5662 9.48438 17.0728 9.62837 17.6088 9.93236L37.0856 20.9988V21.0002Z" fill="url(#paint3_linear)"/>
<path d="M16.235 43.7331C16.6536 43.7091 17.1176 43.5651 17.6056 43.2891L36.9576 32.2925L17.6056 43.2891C17.1176 43.5665 16.6536 43.7105 16.235 43.7331ZM14.9336 43.3038L14.9296 43.2998C14.931 43.3011 14.9323 43.3024 14.9336 43.3038ZM14.843 43.2158L14.835 43.2078C14.8376 43.2104 14.8403 43.2131 14.843 43.2158Z" fill="black"/>
<path fill-rule="evenodd" clip-rule="evenodd" d="M36.9346 32.3651L37.061 32.2925L36.9346 32.3651Z" fill="url(#paint4_linear)"/>
<path fill-rule="evenodd" clip-rule="evenodd" d="M16.1243 43.7694C15.6629 43.7694 15.2603 43.6187 14.9456 43.3347V43.3361C14.9443 43.3347 14.9429 43.3334 14.9416 43.3321L14.8549 43.2481C14.8523 43.2454 14.8496 43.2427 14.8469 43.2401L14.9456 43.1401C15.2603 43.4241 15.6629 43.5747 16.1243 43.5734C16.5749 43.5734 17.0829 43.4307 17.6176 43.1267L36.9709 32.1294L37.0949 32.2534L36.9696 32.3254L17.6176 43.3214C17.1296 43.5974 16.6656 43.7414 16.2469 43.7654C16.2056 43.7681 16.1643 43.7694 16.1243 43.7694Z" fill="url(#paint5_linear)"/>
<path d="M14.8468 43.2463C14.4588 42.8356 14.2295 42.1983 14.2295 41.3729V41.3716C14.2295 42.1983 14.4588 42.8356 14.8468 43.2449V43.2463Z" fill="black"/>
<path fill-rule="evenodd" clip-rule="evenodd" d="M14.8468 43.2381C14.4588 42.8287 14.2295 42.1914 14.2295 41.3647V41.1714C14.2295 41.9967 14.4588 42.6341 14.8468 43.0447L14.9455 43.1394L14.8468 43.2381Z" fill="url(#paint6_linear)"/>
<path d="M44.8562 27.3296C44.9589 27.1056 45.0095 26.8736 45.0095 26.6429C45.0095 26.6416 45.0109 26.6416 45.0109 26.6416C45.0109 26.8736 44.9589 27.1043 44.8562 27.3296Z" fill="black"/>
<path fill-rule="evenodd" clip-rule="evenodd" d="M37.082 32.2706L36.958 32.1466L43.606 28.3688C44.4513 27.8888 44.9247 27.27 45.0033 26.6406C45.0033 26.8713 44.9527 27.1033 44.85 27.3274C44.6433 27.7821 44.2287 28.2101 43.606 28.5635L37.082 32.2706Z" fill="url(#paint7_linear)"/>
<path d="M45.0086 26.6213H45.0073C45.0073 25.9239 44.5419 25.2266 43.6099 24.6973L37.0859 20.9906V20.9893L43.6099 24.6973C44.5419 25.2266 45.0086 25.9239 45.0086 26.6213Z" fill="#404040"/>
<path fill-rule="evenodd" clip-rule="evenodd" d="M44.9799 26.6199C44.9012 25.9879 44.4279 25.3693 43.5826 24.8906L36.9346 21.1133L37.0586 20.9893L43.5826 24.6959C44.5146 25.2253 44.9799 25.9226 44.9799 26.6199Z" fill="url(#paint8_linear)"/>
<path d="M14.2295 11.8804V11.879V11.8804ZM14.2348 11.6644C14.2362 11.663 14.2362 11.6617 14.2362 11.6604C14.2362 11.6617 14.2362 11.663 14.2348 11.6644ZM14.2362 11.6577C14.2362 11.6564 14.2362 11.6537 14.2362 11.651C14.2362 11.6537 14.2362 11.6564 14.2362 11.6577ZM14.2362 11.6497C14.3135 10.2804 15.0575 9.48971 16.1108 9.48438C15.6548 9.48704 15.2575 9.63637 14.9455 9.91771L14.9415 9.92171C14.9095 9.95104 14.8775 9.98171 14.8468 10.0137C14.4975 10.3844 14.2762 10.939 14.2362 11.6497Z" fill="#404040"/>
<path fill-rule="evenodd" clip-rule="evenodd" d="M14.2295 12.0535V11.8589C14.2295 11.8562 14.2295 11.8535 14.2295 11.8509V11.8495C14.2295 11.7762 14.2322 11.7042 14.2348 11.6349C14.2362 11.6335 14.2362 11.6322 14.2362 11.6309C14.2362 11.6309 14.2362 11.6295 14.2362 11.6282C14.2362 11.6269 14.2362 11.6242 14.2362 11.6215V11.6202C14.2762 10.9095 14.4975 10.3549 14.8468 9.98418L14.9442 10.0829C14.4975 10.4855 14.2295 11.1602 14.2295 12.0535ZM14.9415 9.89218L14.9455 9.88818C14.9442 9.88952 14.9428 9.89085 14.9415 9.89218Z" fill="url(#paint9_linear)"/>
<path fill-rule="evenodd" clip-rule="evenodd" d="M36.959 21.1247L17.6056 10.1284C17.0696 9.82305 16.5616 9.67905 16.1096 9.67905C15.6483 9.67905 15.247 9.82972 14.9323 10.1124L14.835 10.0137C14.8656 9.98172 14.8976 9.95105 14.9296 9.92172C14.931 9.92039 14.9323 9.91905 14.9336 9.91772C15.2456 9.63638 15.643 9.48704 16.099 9.48438H16.1096C16.5616 9.48438 17.0696 9.62838 17.6056 9.93372L37.083 21.0007L36.959 21.1247Z" fill="url(#paint10_linear)"/>
<path d="M58.8844 13.241C58.9004 14.5063 58.6456 15.5277 58.1256 16.3024H62.1702V10.2689H58.8844V13.241ZM57.0401 18.9838H56.0572V16.3024H56.84C57.5321 15.7064 57.8709 14.6863 57.8575 13.241V9.28482H63.1984V16.3024H64.0919V18.9838H63.109V17.2851H57.0401V18.9838Z" fill="white"/>
<path d="M58.9158 13.3742L58.7825 13.3755L58.7839 13.4835C58.7839 14.6808 58.5332 15.6368 58.0466 16.3608L57.9067 16.5688H62.334V10.2688H58.7825V13.3755L58.9158 13.3742H59.0492V10.5355H62.0674V16.3022H58.1573V16.4355L58.2679 16.5102C58.7919 15.7302 59.0505 14.7168 59.0505 13.4835L59.0492 13.3728L58.9158 13.3742ZM57.0721 19.1168V18.9835H56.2229V16.5688H56.9215L56.9588 16.5368C57.68 15.9155 58.0226 14.8795 58.0226 13.4622V13.3728V13.3742V9.5515H63.0952V16.5688H63.9884V18.9835H63.2725V17.2848H56.9388V19.1168H57.0721H57.2054V17.5515H63.0059V19.2502H64.255V16.3022H63.3618V9.28483H57.756V13.4622C57.756 14.8422 57.4214 15.7875 56.7855 16.3342L56.8722 16.4355V16.3022H55.9563V19.2502H57.2054V19.1168H57.0721Z" fill="white"/>
<path d="M67.0261 15.5591C67.6181 16.1578 68.3421 16.4578 69.1995 16.4578C70.0555 16.4578 70.7808 16.1578 71.3728 15.5591C71.9648 14.9591 72.2621 14.1938 72.2621 13.2618C72.2621 12.3311 71.9648 11.5657 71.3728 10.9657C70.7808 10.367 70.0555 10.067 69.1995 10.067C68.3421 10.067 67.6181 10.367 67.0261 10.9657C66.4355 11.5657 66.1381 12.3311 66.1381 13.2618C66.1381 14.1938 66.4355 14.9591 67.0261 15.5591ZM72.1328 16.2285C71.3461 17.0378 70.3688 17.4405 69.1995 17.4405C68.0301 17.4405 67.0528 17.0378 66.2675 16.2285C65.4808 15.4205 65.0888 14.4311 65.0888 13.2618C65.0888 12.0924 65.4808 11.1044 66.2675 10.2964C67.0528 9.48702 68.0301 9.08301 69.1995 9.08301C70.3621 9.08301 71.3368 9.48968 72.1275 10.3017C72.9168 11.1137 73.3114 12.1004 73.3114 13.2618C73.3114 14.4311 72.9181 15.4205 72.1328 16.2285Z" fill="white"/>
<path d="M67.0081 15.6927L66.9134 15.7861C67.5281 16.4101 68.2934 16.7261 69.1814 16.7248C70.0694 16.7261 70.8361 16.4101 71.4494 15.7861C72.0668 15.1621 72.3788 14.3554 72.3774 13.3954C72.3788 12.4367 72.0668 11.63 71.4494 11.006C70.8361 10.382 70.0694 10.066 69.1814 10.0673C68.2934 10.066 67.5281 10.382 66.9134 11.006C66.2961 11.63 65.9855 12.4367 65.9868 13.3954C65.9855 14.3554 66.2961 15.1621 66.9134 15.7861L67.0081 15.6927L67.1028 15.5981C66.5374 15.0234 66.2548 14.2994 66.2535 13.3954C66.2548 12.4927 66.5374 11.7687 67.1028 11.1927V11.194C67.6734 10.618 68.3561 10.3353 69.1814 10.334C70.0068 10.3353 70.6908 10.618 71.2601 11.1927L71.2614 11.1953L71.2601 11.194C71.8268 11.7687 72.1094 12.4927 72.1108 13.3954C72.1094 14.2994 71.8268 15.0234 71.2601 15.5981C70.6908 16.1741 70.0068 16.4568 69.1814 16.4581C68.3561 16.4568 67.6734 16.1741 67.1028 15.5981L67.0081 15.6927ZM72.0188 16.2688C71.2548 17.0528 70.3201 17.4394 69.1814 17.4408C68.0428 17.4394 67.1081 17.0528 66.3441 16.2688C65.5814 15.4834 65.2055 14.5354 65.2041 13.3954C65.2055 12.2567 65.5814 11.3087 66.3441 10.5233C67.1081 9.7393 68.0428 9.35129 69.1814 9.34995C70.3134 9.35129 71.2454 9.74063 72.0148 10.5286C72.7801 11.318 73.1588 12.2633 73.1601 13.3954C73.1588 14.5354 72.7814 15.4834 72.0188 16.2688L72.2108 16.4554C73.0188 15.6247 73.4281 14.5954 73.4268 13.3954C73.4281 12.2033 73.0174 11.1767 72.2054 10.342C71.3934 9.50596 70.3748 9.08195 69.1814 9.08328C67.9814 9.08195 66.9614 9.50329 66.1535 10.3366C65.3428 11.1673 64.9361 12.1967 64.9374 13.3954C64.9361 14.5954 65.3428 15.6247 66.1535 16.4554C66.9614 17.2888 67.9814 17.7088 69.1814 17.7074C70.3814 17.7088 71.4014 17.2888 72.2108 16.4554L72.0188 16.2688Z" fill="white"/>
<path d="M78.4796 17.4405C77.3022 17.4405 76.3156 17.0418 75.5182 16.2458C74.7196 15.4485 74.3222 14.4538 74.3222 13.2618C74.3222 12.0711 74.7196 11.0764 75.5182 10.279C76.3156 9.48168 77.3022 9.08301 78.4796 9.08301C79.6849 9.08301 80.6649 9.51902 81.4182 10.391L80.7022 11.0844C80.1596 10.4057 79.4169 10.067 78.4796 10.067C77.6062 10.067 76.8716 10.3617 76.2716 10.9497C75.6716 11.5377 75.3729 12.3097 75.3729 13.2618C75.3729 14.2151 75.6716 14.9871 76.2716 15.5751C76.8716 16.1631 77.6062 16.4578 78.4796 16.4578C79.4396 16.4578 80.2596 16.0711 80.9369 15.2965L81.6529 16.0111C81.2862 16.4511 80.8289 16.7992 80.2769 17.0552C79.7262 17.3125 79.1262 17.4405 78.4796 17.4405Z" fill="white"/>
<path d="M78.4615 17.4408C77.3135 17.4394 76.3682 17.0568 75.5948 16.2848C74.8215 15.5114 74.4402 14.5581 74.4388 13.3954C74.4402 12.234 74.8215 11.2807 75.5948 10.5073C76.3682 9.73396 77.3135 9.35129 78.4615 9.34995C79.6348 9.35262 80.5682 9.7673 81.2988 10.6113L81.4002 10.5246L81.3068 10.4286L80.5908 11.122L80.6842 11.218L80.7882 11.134C80.2228 10.4246 79.4308 10.0646 78.4615 10.0673C77.5588 10.066 76.7815 10.3753 76.1602 10.9887C75.5335 11.602 75.2202 12.4153 75.2215 13.3954C75.2202 14.3767 75.5335 15.1901 76.1602 15.8034C76.7815 16.4154 77.5588 16.7261 78.4615 16.7248C79.4588 16.7261 80.3228 16.3168 81.0202 15.5181L80.9188 15.4301L80.8255 15.5247L81.5402 16.2394L81.6348 16.1448L81.5322 16.0594C81.1788 16.4834 80.7388 16.8194 80.2028 17.0674C79.6708 17.3168 79.0908 17.4408 78.4615 17.4408V17.7074C79.1255 17.7074 79.7468 17.5754 80.3162 17.3101C80.8842 17.0461 81.3588 16.6848 81.7362 16.2301L81.8148 16.1368L80.9135 15.2354L80.8188 15.3421C80.1602 16.0928 79.3855 16.4568 78.4615 16.4581C77.6188 16.4568 76.9242 16.1781 76.3482 15.6127H76.3468C75.7748 15.0501 75.4895 14.3221 75.4882 13.3954C75.4895 12.47 75.7748 11.742 76.3468 11.178H76.3482C76.9242 10.614 77.6188 10.3353 78.4615 10.334C79.3668 10.3366 80.0588 10.654 80.5802 11.3007L80.6708 11.4153L81.4922 10.6193L81.5828 10.5326L81.5015 10.4366C80.7268 9.53663 79.6988 9.08195 78.4615 9.08328C77.2535 9.08195 76.2255 9.49662 75.4055 10.318C74.5828 11.138 74.1708 12.1753 74.1708 13.3954C74.1708 14.6167 74.5828 15.6541 75.4055 16.4741C76.2255 17.2941 77.2535 17.7088 78.4615 17.7074V17.4408Z" fill="white"/>
<path d="M85.8091 17.2848H84.7798V10.2688H82.5465V9.28482H88.0438V10.2688H85.8091V17.2848Z" fill="white"/>
<path d="M85.7912 17.4182V17.2848H84.8952V10.2688H82.6618V9.5515H87.8925V10.2688H85.6578V17.4182H85.7912H85.9245V10.5355H88.1592V9.28483H82.3952V10.5355H84.6285V17.5515H85.9245V17.4182H85.7912Z" fill="white"/>
<path d="M95.1205 9.28482L92.0938 16.0342C91.6752 16.9875 91.0552 17.4635 90.2285 17.4635C89.9818 17.4635 89.7178 17.4048 89.4338 17.2848L89.7018 16.3355C89.8738 16.4328 90.0525 16.4808 90.2378 16.4808C90.4765 16.4808 90.6618 16.4342 90.7912 16.3408C90.9218 16.2488 91.0432 16.0782 91.1552 15.8328L91.4458 15.1955L88.7525 9.28482H89.9592L91.9365 13.8782H91.9818L93.9138 9.28482H95.1205Z" fill="white"/>
<path d="M95.1251 9.41817L95.0037 9.36484L91.9757 16.1131V16.1144C91.5637 17.0385 91.0024 17.4598 90.2331 17.4638C90.0077 17.4638 89.7611 17.4105 89.4904 17.2958L89.4384 17.4185L89.5664 17.4558L89.8344 16.5051L89.7064 16.4691L89.6411 16.5851C89.8304 16.6931 90.0331 16.7478 90.2424 16.7478C90.4971 16.7478 90.7104 16.6998 90.8744 16.5838C91.0344 16.4678 91.1624 16.2784 91.2811 16.0224L91.5717 15.3851L91.5971 15.3291L88.9651 9.55151H89.8771L91.8544 14.145H92.0744L94.0064 9.55151H95.1251V9.41817V9.28483H93.8291L91.8624 13.9597L91.9864 14.0117V13.8783H91.9411V14.0117L92.0637 13.9583L90.0517 9.28483H88.5504L91.3037 15.3291L91.0384 15.9118C90.9317 16.1451 90.8184 16.2958 90.7184 16.3664C90.6211 16.4371 90.4651 16.4811 90.2424 16.4811C90.0797 16.4811 89.9264 16.4398 89.7717 16.3531L89.6237 16.2691L89.2784 17.4958L89.3864 17.5425C89.6824 17.6665 89.9651 17.7305 90.2331 17.7305C91.1171 17.7345 91.7957 17.2025 92.2197 16.2211V16.2224L95.3304 9.28483H95.1251V9.41817Z" fill="white"/>
<path d="M96.2704 17.2848V9.28482H102.058V17.2848H101.029V10.2688H97.2984V17.2848H96.2704Z" fill="white"/>
<path d="M96.2525 17.4182H96.3858V9.5515H101.907V17.2848H101.144V10.2688H97.1471V17.2848H96.2525V17.4182V17.5515H97.4138V10.5355H100.878V17.5515H102.174V9.28483H96.1191V17.5515H96.2525V17.4182Z" fill="white"/>
<path d="M103.889 17.2848V9.28482H104.916V12.7155H108.916V9.28482H109.945V17.2848H108.916V13.6755H104.916V17.2848H103.889Z" fill="white"/>
<path d="M103.871 17.4182H104.005V9.5515H104.765V12.9822H109.031V9.5515H109.794V17.2848H109.031V13.6755H104.765V17.2848H103.871V17.4182V17.5515H105.031V13.9422H108.765V17.5515H110.061V9.28483H108.765V12.7155H105.031V9.28483H103.738V17.5515H103.871V17.4182Z" fill="white"/>
<path d="M113.193 15.5591C113.785 16.1578 114.509 16.4578 115.366 16.4578C116.224 16.4578 116.948 16.1578 117.54 15.5591C118.132 14.9591 118.429 14.1938 118.429 13.2618C118.429 12.3311 118.132 11.5657 117.54 10.9657C116.948 10.367 116.224 10.067 115.366 10.067C114.509 10.067 113.785 10.367 113.193 10.9657C112.602 11.5657 112.305 12.3311 112.305 13.2618C112.305 14.1938 112.602 14.9591 113.193 15.5591ZM118.3 16.2285C117.513 17.0378 116.536 17.4405 115.366 17.4405C114.197 17.4405 113.22 17.0378 112.434 16.2285C111.648 15.4205 111.256 14.4311 111.256 13.2618C111.256 12.0924 111.648 11.1044 112.434 10.2964C113.22 9.48702 114.197 9.08301 115.366 9.08301C116.529 9.08301 117.504 9.48968 118.294 10.3017C119.084 11.1137 119.479 12.1004 119.479 13.2618C119.479 14.4311 119.085 15.4205 118.3 16.2285Z" fill="white"/>
<path d="M113.226 15.6927L113.131 15.7861C113.746 16.4101 114.511 16.7261 115.399 16.7248C116.287 16.7261 117.054 16.4101 117.667 15.7861C118.286 15.1621 118.596 14.3554 118.595 13.3954C118.596 12.4367 118.286 11.63 117.667 11.006C117.054 10.382 116.287 10.066 115.399 10.0673C114.511 10.066 113.746 10.382 113.131 11.006C112.514 11.63 112.203 12.4367 112.204 13.3954C112.203 14.3554 112.514 15.1621 113.131 15.7861L113.226 15.6927L113.32 15.5981C112.755 15.0234 112.472 14.2994 112.471 13.3954C112.472 12.4927 112.755 11.7687 113.32 11.1927V11.194C113.891 10.618 114.574 10.3353 115.399 10.334C116.224 10.3353 116.908 10.618 117.478 11.1927L117.482 11.198L117.478 11.194C118.044 11.7687 118.327 12.4927 118.328 13.3954C118.327 14.2994 118.044 15.0234 117.478 15.5981C116.908 16.1741 116.224 16.4568 115.399 16.4581C114.574 16.4568 113.891 16.1741 113.32 15.5981L113.226 15.6927ZM118.236 16.2688C117.472 17.0528 116.538 17.4394 115.399 17.4408C114.26 17.4394 113.326 17.0528 112.562 16.2688C111.799 15.4834 111.423 14.5354 111.422 13.3954C111.423 12.2567 111.799 11.3087 112.562 10.5233C113.326 9.7393 114.26 9.35129 115.399 9.34995C116.531 9.35129 117.463 9.74063 118.232 10.5286C118.998 11.318 119.376 12.2633 119.378 13.3954C119.376 14.5354 118.999 15.4834 118.236 16.2688L118.428 16.4554C119.236 15.6247 119.646 14.5954 119.644 13.3954C119.646 12.2033 119.235 11.1767 118.423 10.342C117.611 9.50596 116.592 9.08195 115.399 9.08328C114.199 9.08195 113.179 9.50329 112.371 10.3366C111.562 11.1673 111.154 12.1967 111.155 13.3954C111.154 14.5954 111.562 15.6247 112.371 16.4554C113.179 17.2888 114.199 17.7088 115.399 17.7074C116.599 17.7088 117.619 17.2888 118.428 16.4554L118.236 16.2688Z" fill="white"/>
<path d="M124.745 16.3005H126.813C127.207 16.3005 127.527 16.1632 127.774 15.8872C128.019 15.6125 128.142 15.3099 128.142 14.9819C128.142 14.6539 128.015 14.3552 127.762 14.0832C127.51 13.8112 127.177 13.6739 126.767 13.6739H124.745V16.3005ZM124.745 12.7139H126.611C126.999 12.7139 127.31 12.5859 127.545 12.3285C127.779 12.0712 127.897 11.7899 127.897 11.4845C127.897 11.1792 127.783 10.8992 127.555 10.6472C127.329 10.3939 127.029 10.2672 126.657 10.2672H124.745V12.7139ZM123.718 17.2832V9.2832H126.611C127.237 9.2832 127.779 9.4912 128.237 9.9032C128.695 10.3179 128.925 10.8365 128.925 11.4619C128.925 11.8419 128.826 12.1779 128.627 12.4685C128.431 12.7592 128.169 12.9779 127.841 13.1272V13.1712C128.234 13.3059 128.559 13.5365 128.813 13.8645C129.065 14.1925 129.193 14.5725 129.193 15.0045C129.193 15.6605 128.953 16.2032 128.471 16.6352C127.991 17.0672 127.423 17.2832 126.767 17.2832H123.718Z" fill="white"/>
<path d="M124.727 16.4339V16.5672H126.795C127.22 16.5685 127.587 16.4125 127.855 16.1085C128.119 15.8152 128.259 15.4765 128.258 15.1152C128.259 14.7525 128.114 14.4152 127.842 14.1245C127.566 13.8259 127.188 13.6725 126.75 13.6739H124.594V16.5672H124.727V16.4339H124.86V13.9405H126.75C127.131 13.9432 127.418 14.0632 127.647 14.3072C127.882 14.5605 127.99 14.8232 127.991 15.1152C127.99 15.4099 127.884 15.6752 127.656 15.9312C127.434 16.1792 127.159 16.2992 126.795 16.3005H124.727V16.4339ZM124.727 12.8472V12.9805H126.594C127.01 12.9819 127.367 12.8379 127.626 12.5512C127.878 12.2765 128.012 11.9592 128.012 11.6179C128.012 11.2792 127.883 10.9632 127.636 10.6912C127.387 10.4099 127.04 10.2645 126.639 10.2672H124.594V12.9805H124.727V12.8472H124.86V10.5339H126.639C126.982 10.5352 127.235 10.6445 127.438 10.8699C127.647 11.1032 127.744 11.3472 127.746 11.6179C127.744 11.8885 127.644 12.1339 127.428 12.3712C127.218 12.6005 126.952 12.7112 126.594 12.7139H124.727V12.8472ZM123.7 17.4165H123.834V9.54988H126.594C127.19 9.55121 127.694 9.74455 128.13 10.1365V10.1352C128.563 10.5285 128.772 11.0032 128.774 11.5952C128.774 11.9525 128.682 12.2579 128.5 12.5259V12.5272C128.316 12.7979 128.075 12.9992 127.767 13.1392L127.69 13.1752V13.4005L127.779 13.4312C128.151 13.5579 128.451 13.7712 128.69 14.0792C128.924 14.3859 129.042 14.7325 129.042 15.1379C129.04 15.7605 128.819 16.2592 128.364 16.6699C127.906 17.0805 127.376 17.2832 126.75 17.2832H123.7V17.4165V17.5499H126.75C127.435 17.5512 128.04 17.3205 128.543 16.8672C129.05 16.4152 129.31 15.8259 129.308 15.1379C129.31 14.6805 129.171 14.2672 128.9 13.9165C128.632 13.5685 128.283 13.3205 127.866 13.1792L127.823 13.3045H127.956V13.2605H127.823L127.878 13.3819C128.226 13.2245 128.511 12.9872 128.72 12.6765C128.934 12.3632 129.04 11.9992 129.04 11.5952C129.042 10.9379 128.794 10.3739 128.308 9.93788C127.828 9.50455 127.248 9.28321 126.594 9.28321H123.567V17.5499H123.7V17.4165Z" fill="white"/>
<defs>
<linearGradient id="paint0_linear" x1="29.9996" y1="11.5617" x2="14.0854" y2="42.9872" gradientUnits="userSpaceOnUse">
<stop stop-color="#00A0FF"/>
<stop offset="1" stop-color="#00E2FF"/>
</linearGradient>
<linearGradient id="paint1_linear" x1="46.0333" y1="26.6298" x2="21.161" y2="26.6298" gradientUnits="userSpaceOnUse">
<stop stop-color="#FFDF00"/>
<stop offset="1" stop-color="#FF9C00"/>
</linearGradient>
<linearGradient id="paint2_linear" x1="34.0257" y1="29.687" x2="2.17412" y2="55.5149" gradientUnits="userSpaceOnUse">
<stop stop-color="#FF3A44"/>
<stop offset="1" stop-color="#C31162"/>
</linearGradient>
<linearGradient id="paint3_linear" x1="33.6927" y1="-1.72651" x2="28.83" y2="22.5868" gradientUnits="userSpaceOnUse">
<stop stop-color="#31A070"/>
<stop offset="1" stop-color="#00EF75"/>
</linearGradient>
<linearGradient id="paint4_linear" x1="46.0878" y1="26.6127" x2="13.5525" y2="26.6127" gradientUnits="userSpaceOnUse">
<stop stop-color="#CCB300"/>
<stop offset="1" stop-color="#CC7C00"/>
</linearGradient>
<linearGradient id="paint5_linear" x1="34.0363" y1="29.6815" x2="3.69183" y2="-0.662865" gradientUnits="userSpaceOnUse">
<stop stop-color="#CC2D36"/>
<stop offset="1" stop-color="#9C0E4D"/>
</linearGradient>
<linearGradient id="paint6_linear" x1="29.9999" y1="11.5657" x2="7.62323" y2="-10.811" gradientUnits="userSpaceOnUse">
<stop stop-color="#008CDF"/>
<stop offset="1" stop-color="#00C6DF"/>
</linearGradient>
<linearGradient id="paint7_linear" x1="46.0332" y1="26.6385" x2="13.7705" y2="26.6385" gradientUnits="userSpaceOnUse">
<stop stop-color="#DFC400"/>
<stop offset="1" stop-color="#DF8900"/>
</linearGradient>
<linearGradient id="paint8_linear" x1="46.0098" y1="26.6205" x2="13.7471" y2="26.6205" gradientUnits="userSpaceOnUse">
<stop stop-color="#FFE83F"/>
<stop offset="1" stop-color="#FFB53F"/>
</linearGradient>
<linearGradient id="paint9_linear" x1="29.9999" y1="11.5465" x2="7.62314" y2="-10.8302" gradientUnits="userSpaceOnUse">
<stop stop-color="#3FB8FF"/>
<stop offset="1" stop-color="#3FE9FF"/>
</linearGradient>
<linearGradient id="paint10_linear" x1="10.6514" y1="0.197719" x2="24.2017" y2="-13.3523" gradientUnits="userSpaceOnUse">
<stop stop-color="#64B895"/>
<stop offset="1" stop-color="#3FF497"/>
</linearGradient>
</defs>
</svg>
