<svg width="200" height="64" viewBox="0 0 200 64" fill="none" xmlns="http://www.w3.org/2000/svg">
<path d="M12.9572 0.0359413C18.7786 0.0826617 24.6037 -0.0107831 30.4252 0.0646889C30.4143 16.3737 30.4575 32.6864 30.4035 48.999C32.5599 49.0386 34.7202 49.0135 36.8767 49.0098C37.4311 50.4079 37.1827 51.9246 37.2079 53.3872C37.2223 56.9092 37.2223 60.4312 37.2403 63.9533C35.2565 63.9712 33.2693 63.9676 31.2855 63.9569C31.282 60.9846 31.2568 58.0125 31.3107 55.0404C22.872 54.9937 14.4296 55.0008 5.99076 55.0333C5.9656 58.0197 6.0484 61.0134 5.95123 64C3.97481 63.9353 1.99471 63.9604 0.0181412 63.9712C0.00745342 59.0727 0.0397987 54.1742 0 49.2794C2.09555 49.2434 4.19432 49.3298 6.29325 49.2326C6.26455 46.9937 6.86574 44.823 7.03495 42.6056C8.2157 35.0727 9.15174 27.5004 10.2354 19.9497C10.4406 18.1348 10.5559 16.3055 10.9735 14.5229C11.6252 9.68912 12.23 4.85534 12.9572 0.0359413ZM18.2675 5.77897C17.0757 15.2417 15.6357 24.6613 14.3649 34.1097C13.7239 39.1807 12.7951 44.2157 12.3127 49.301C16.3017 49.3118 20.2907 49.2399 24.2761 49.3333C24.4525 44.8194 24.2941 40.2947 24.3517 35.7772C24.3012 25.761 24.4489 15.7376 24.2689 5.72506C22.2671 5.74303 20.269 5.73584 18.2675 5.77897ZM52.6274 0.0467201C54.6975 0.0107786 56.764 0.0215655 58.8305 0.0539101C61.8294 16.2372 65.0228 32.3918 68.0685 48.5678C68.4861 50.7061 69.0261 52.841 69.0909 55.0296C67.2981 55.0081 65.5016 55.0296 63.7087 55.0153C62.8087 51.3136 62.2506 47.5363 61.5486 43.7952C57.664 43.7556 53.783 43.8024 49.8985 43.7699C49.3945 46.5588 48.8976 49.3441 48.3396 52.1222C48.0768 53.0458 48.0156 54.009 47.9832 54.9685C46.0643 55.0512 44.1418 54.9865 42.2193 55.0547C42.2949 52.9991 42.9358 51.0189 43.2706 48.9955C45.8915 35.3962 48.498 21.7861 51.1405 8.18687C51.6122 5.4699 52.3214 2.78885 52.6274 0.0467201ZM55.3059 15.6334C54.4167 20.7727 53.207 25.8544 52.3682 31.0045C51.9902 33.2902 51.3205 35.5291 51.2053 37.8545C54.2583 37.84 57.3148 37.9012 60.3677 37.8185C58.9385 29.6927 57.0448 21.6532 55.9179 13.4807C55.7271 14.1994 55.4823 14.9074 55.3059 15.6334ZM75.2508 -2.54313e-07C82.5879 0.0682859 89.9287 0.0610919 97.2658 0.0143715C97.5322 1.75022 97.3882 3.51842 97.4134 5.27223C97.2982 5.39083 97.0678 5.63521 96.9562 5.75741C91.7143 5.75741 86.4725 5.75381 81.2307 5.75381C80.7087 7.71608 81.2379 9.71068 81.1515 11.6981C81.1335 17.9766 81.1767 24.2551 81.1227 30.5336C84.208 30.8068 87.3869 30.1311 90.3967 31.0584C94.5081 32.1043 97.9354 35.4968 98.9975 39.601C99.9407 43.1949 99.1847 47.2021 96.9022 50.1527C94.6161 53.319 90.6919 55.0081 86.8433 55.0296C82.9696 55.0224 79.0958 54.9757 75.222 55.0512C75.0636 37.4879 75.2076 19.9137 75.15 2.34681C75.1392 1.56334 75.168 0.779874 75.2508 -2.54313e-07ZM81.1839 36.2911C81.1011 40.6289 81.1515 44.9705 81.1479 49.3082C83.4016 49.2579 85.6553 49.319 87.9054 49.2759C91.9772 48.8589 94.6485 43.9928 92.9564 40.3055C92.2976 38.1814 90.3139 36.8051 88.2294 36.3054C85.8821 36.2624 83.5312 36.3091 81.1839 36.2911ZM109.323 0.0215655C117.376 0.0359372 125.426 0.0826576 133.48 0.00718562C133.577 0.657682 133.71 1.31177 133.71 1.97664C133.696 19.0009 133.692 36.0252 133.721 53.0494C133.732 53.7143 133.591 54.3719 133.483 55.0296C131.539 54.9543 129.595 55.098 127.655 54.9543C127.748 38.5553 127.709 22.1563 127.676 5.761C123.507 5.76819 119.342 5.7035 115.177 5.79335C115.126 18.9074 115.231 32.0252 115.126 45.1356C114.457 49.1393 111.479 52.6182 107.717 54.124C105.867 54.9722 103.782 54.6559 101.809 54.7745C101.795 52.9451 101.784 51.116 101.795 49.2865C105.186 49.8724 108.79 47.5041 109.301 44.0611C109.344 29.3801 109.319 14.7026 109.323 0.0215655ZM193.948 0.0359413C195.953 0.0359413 197.962 0.00359268 199.971 0.0646889C200.04 18.372 199.953 36.683 200 54.9937C197.962 54.9937 195.921 55.0872 193.887 54.9398C193.977 42.0665 193.898 29.1896 193.941 16.3163C193.232 17.5597 192.8 18.9254 192.328 20.2659C188.497 30.5374 184.66 40.805 180.847 51.0835C180.26 52.363 180.084 53.8724 179.198 54.9901C177.305 55.0764 175.404 54.9506 173.51 55.0512C173.341 46.7134 173.496 38.3648 173.442 30.027C173.463 20.0215 173.391 10.0198 173.467 0.0179685C175.317 0.0646929 177.168 -2.54313e-07 179.022 0.0395342C179.133 0.161727 179.364 0.398917 179.475 0.517517C179.504 13.1285 179.468 25.743 179.479 38.354C180.286 36.6721 180.883 34.9075 181.513 33.1573C185.725 22.1419 189.686 11.0296 193.948 0.0359413ZM141.339 0.312667C148.77 0.273136 156.204 0.291105 163.635 0.298291C163.631 2.12399 163.62 3.94968 163.624 5.77538C158.231 5.71787 152.838 5.77897 147.445 5.73584C147.441 14.1132 147.358 22.4941 147.484 30.8715C150.415 30.8715 153.356 30.7206 156.283 30.9577C160.078 31.8131 163.318 34.6702 164.758 38.2641C165.593 40.1977 165.582 42.3432 165.456 44.4097C165.147 47.7017 163.214 50.7206 160.56 52.6505C157.997 54.4977 154.739 55.1446 151.628 55.0261C148.222 54.9614 144.817 55.0907 141.418 54.9543C141.271 36.7475 141.422 18.5229 141.339 0.312667ZM147.423 36.2767C147.416 40.6218 147.412 44.9705 147.427 49.3153C149.67 49.2543 151.913 49.3225 154.152 49.2865C156.053 49.0063 157.727 47.7664 158.731 46.1492C159.779 44.5894 159.549 42.5912 159.379 40.8266C158.782 38.4187 156.539 36.6146 154.109 36.3091C151.88 36.2658 149.652 36.3379 147.423 36.2767Z" fill="#1F1F1F"/>
</svg>
